<svg width="222" height="138" viewBox="0 0 222 138" fill="none" xmlns="http://www.w3.org/2000/svg">
<g id="CARBON CAPTURE 2" clip-path="url(#clip0_880_62517)">
<g id="Layer 1">
<g id="Group">
<g id="Group_2">
<path id="Vector" d="M1.65335 129.315L1.34339 125.93L9.91894 119.912V119.707L0.344628 115.399L0.034668 112.014L12.8463 118.066L20.6642 117.348L20.9397 120.323L13.1219 121.075L1.68779 129.384L1.65335 129.315Z" fill="black"/>
<path id="Vector_2" d="M11.8476 90.9172C13.9828 91.1224 15.7737 91.7037 17.2202 92.661C18.6667 93.5842 19.7343 94.781 20.3887 96.1828C21.0775 97.6189 21.3186 99.1918 21.1464 100.901C20.9742 102.611 20.3887 104.115 19.4244 105.346C18.46 106.611 17.1858 107.535 15.5671 108.15C13.9484 108.766 12.0886 108.971 9.95337 108.731C7.81809 108.526 6.02721 107.945 4.58074 106.988C3.13426 106.064 2.06662 104.868 1.41226 103.432C0.723459 101.996 0.482379 100.423 0.654579 98.7131C0.826779 97.0035 1.41226 95.5332 2.37658 94.2681C3.3409 93.003 4.61518 92.0798 6.23385 91.4643C7.85253 90.8489 9.71229 90.6437 11.8476 90.883V90.9172ZM11.5376 93.892C9.91893 93.721 8.50689 93.8236 7.37037 94.2339C6.19941 94.6442 5.26953 95.2597 4.61518 96.1145C3.96082 96.9693 3.54754 97.9266 3.44422 99.0892C3.30646 100.218 3.5131 101.277 3.99526 102.235C4.47742 103.192 5.23509 103.979 6.30273 104.628C7.37037 105.278 8.71353 105.654 10.3322 105.825C11.9509 105.996 13.3629 105.859 14.4994 105.483C15.6704 105.073 16.6003 104.457 17.2546 103.637C17.909 102.816 18.3223 101.825 18.4256 100.662C18.5634 99.5337 18.3567 98.4737 17.8746 97.5163C17.3924 96.559 16.6347 95.7725 15.5671 95.1229C14.4994 94.4732 13.1563 94.0971 11.5376 93.9262V93.892Z" fill="black"/>
<path id="Vector_3" d="M7.54269 70.9148L8.50701 68.0426L21.0087 72.1799C22.3519 72.6244 23.4195 73.3082 24.2116 74.2656C25.0382 75.223 25.5548 76.3513 25.7614 77.6848C25.9681 78.9841 25.8303 80.4202 25.3137 81.9247C24.7971 83.4291 24.0739 84.66 23.1096 85.5832C22.1452 86.5064 21.0432 87.1219 19.8033 87.3954C18.5635 87.669 17.2892 87.6006 15.946 87.1561L3.44434 83.0188L4.40865 80.1809L16.6693 84.2497C17.5303 84.5233 18.3568 84.5917 19.149 84.4549C19.9411 84.3181 20.6643 83.942 21.2498 83.3607C21.8697 82.7795 22.3174 82.0272 22.6618 81.0699C22.9718 80.1125 23.0751 79.2235 22.9374 78.4029C22.7996 77.5822 22.4552 76.8642 21.9042 76.2829C21.3531 75.7017 20.6643 75.2572 19.8033 74.9836L7.54269 70.9148Z" fill="black"/>
<path id="Vector_4" d="M29.033 71.2909L11.6753 61.3751L15.2226 55.2205C15.9803 53.887 16.8757 52.8955 17.84 52.28C18.8044 51.6645 19.8376 51.3568 20.9052 51.391C21.9728 51.391 23.0405 51.7329 24.1081 52.3484C25.1758 52.9638 25.9679 53.7161 26.5189 54.6051C27.07 55.4941 27.311 56.5198 27.2422 57.6482C27.1733 58.7765 26.76 60.0416 25.9679 61.3751L23.2816 66.0253L21.0085 64.726L23.5571 60.3152C24.0392 59.4604 24.3148 58.7081 24.3836 58.0585C24.4525 57.3746 24.3148 56.7934 24.0048 56.2805C23.6948 55.7676 23.2127 55.3231 22.5583 54.947C21.904 54.5709 21.2496 54.3657 20.6297 54.3657C20.0098 54.3657 19.4243 54.5367 18.8388 54.9128C18.2878 55.2889 17.7367 55.9044 17.2546 56.7934L15.3604 60.0758L30.4795 68.6923L28.9642 71.2909H29.033ZM26.1056 58.2978L36.4032 58.503L34.6812 61.4777L24.4181 61.2042L26.0712 58.332L26.1056 58.2978Z" fill="black"/>
<path id="Vector_5" d="M44.3244 30.2943L42.1547 32.4143C41.6037 32.0382 41.0526 31.7646 40.4672 31.662C39.8817 31.5253 39.3307 31.5253 38.7452 31.5937C38.1597 31.662 37.6087 31.833 37.0921 32.1065C36.5755 32.3801 36.0589 32.722 35.6111 33.1665C34.7846 33.9871 34.268 34.9103 34.0269 35.9361C33.7858 36.996 33.8891 38.0902 34.268 39.2527C34.6813 40.4153 35.4389 41.5778 36.5755 42.7061C37.712 43.8687 38.8829 44.6551 40.0194 45.0654C41.1904 45.5099 42.2925 45.6125 43.3257 45.3731C44.3933 45.1338 45.3232 44.6209 46.1153 43.8345C46.563 43.39 46.9419 42.9113 47.2174 42.3984C47.4929 41.8855 47.6996 41.3385 47.7684 40.7914C47.8718 40.2443 47.8373 39.663 47.7684 39.0818C47.6651 38.5005 47.424 37.9534 47.0452 37.4063L49.2149 35.2864C49.8004 36.107 50.2137 36.9618 50.4548 37.885C50.6958 38.774 50.7647 39.6972 50.6614 40.6204C50.5581 41.5436 50.2826 42.4668 49.8693 43.3216C49.456 44.1764 48.8361 45.0312 48.044 45.7834C46.8041 46.9802 45.4265 47.7666 43.8767 48.1427C42.3269 48.5188 40.7427 48.4163 39.124 47.8692C37.5053 47.3221 35.9211 46.2963 34.4402 44.7919C32.9248 43.2874 31.9261 41.7146 31.4095 40.0733C30.8929 38.4321 30.824 36.8593 31.2028 35.3206C31.5817 33.782 32.4082 32.4143 33.6481 31.2175C34.4057 30.4995 35.2323 29.884 36.0933 29.4737C36.9543 29.0292 37.8497 28.7899 38.8141 28.6873C39.7439 28.5847 40.6738 28.6873 41.6037 28.9267C42.5336 29.166 43.429 29.6447 44.3244 30.2943Z" fill="black"/>
<path id="Vector_6" d="M57.377 37.4405L54.6563 39.1501L49.938 18.5322L52.8654 16.6516L69.741 29.5421L67.0202 31.2517L53.4164 20.5837L53.2787 20.6521L57.3426 37.4063L57.377 37.4405ZM53.5886 30.6021L62.3708 25.0287L63.7484 27.1486L54.9662 32.722L53.5886 30.6021Z" fill="black"/>
<path id="Vector_7" d="M71.6355 28.8925L64.2998 10.3945L70.9467 7.79585C72.3932 7.21458 73.7019 7.00943 74.8384 7.11201C75.975 7.24878 76.9737 7.62489 77.8003 8.30874C78.6268 8.99258 79.2467 9.91577 79.6945 11.0441C80.1422 12.1725 80.3144 13.2666 80.1766 14.3266C80.0389 15.3865 79.5911 16.3097 78.8335 17.1645C78.0758 18.0193 76.9737 18.7374 75.5272 19.2845L70.499 21.2676L69.5347 18.8741L74.3218 16.9936C75.2173 16.6516 75.9061 16.2071 76.3882 15.7285C76.8704 15.2498 77.1459 14.7027 77.2148 14.1214C77.2837 13.5402 77.2148 12.8905 76.9048 12.1725C76.6293 11.4886 76.2505 10.9073 75.7683 10.497C75.2862 10.0867 74.7351 9.84739 74.0463 9.81319C73.3575 9.74481 72.5654 9.91577 71.6355 10.2919L68.0882 11.6596L74.494 27.7641L71.67 28.8583L71.6355 28.8925ZM77.5248 16.9594L85.4459 23.5243L82.243 24.7894L74.4252 18.1903L77.5248 16.9594Z" fill="black"/>
<path id="Vector_8" d="M87.3743 23.0456L83.5859 3.52182L90.7839 2.15413C92.1959 1.88059 93.3669 1.88059 94.3656 2.15413C95.3644 2.42767 96.1565 2.90636 96.7764 3.5902C97.3964 4.27405 97.7752 5.09466 97.9474 6.05205C98.1196 6.87266 98.0852 7.5907 97.913 8.20616C97.7063 8.82162 97.3964 9.3345 96.9486 9.779C96.5009 10.1893 95.9843 10.5654 95.4333 10.839V11.0441C96.1221 10.9415 96.8109 11.0441 97.4997 11.2835C98.1885 11.557 98.8084 12.0015 99.3594 12.617C99.9105 13.2324 100.289 14.053 100.462 15.0788C100.668 16.0704 100.599 17.0278 100.289 17.8826C99.9794 18.7716 99.3594 19.5238 98.464 20.1735C97.5686 20.8231 96.3632 21.3018 94.8478 21.5753L87.3055 23.0114L87.3743 23.0456ZM88.2009 11.386L92.1959 10.6338C92.8503 10.497 93.4358 10.2577 93.9179 9.91577C94.4001 9.57385 94.7445 9.12935 94.9856 8.61647C95.2266 8.10358 95.2611 7.52231 95.1578 6.87266C94.9856 6.05205 94.5723 5.43659 93.9179 4.99209C93.2291 4.54759 92.3337 4.44501 91.1283 4.68436L87.0644 5.47078L88.2009 11.4202V11.386ZM89.854 19.9341L94.159 19.1135C95.571 18.84 96.5354 18.3955 97.052 17.7116C97.5686 17.062 97.7408 16.3097 97.5686 15.4891C97.4308 14.8737 97.1897 14.3266 96.7764 13.8821C96.3632 13.4376 95.8466 13.0957 95.1922 12.8905C94.5723 12.6853 93.849 12.6853 93.0569 12.8221L88.6831 13.6769L89.8885 19.9341H89.854Z" fill="black"/>
<path id="Vector_9" d="M121.815 10.3603C121.815 12.4802 121.367 14.2924 120.54 15.831C119.748 17.3355 118.646 18.498 117.269 19.2844C115.891 20.0709 114.341 20.4812 112.619 20.447C110.897 20.447 109.347 20.0025 108.004 19.1477C106.661 18.2929 105.593 17.1303 104.836 15.5917C104.078 14.053 103.699 12.2066 103.734 10.0867C103.734 7.9668 104.181 6.15461 105.008 4.61596C105.8 3.1115 106.902 1.94896 108.28 1.16254C109.657 0.376115 111.207 0 112.929 0C114.651 0 116.201 0.444499 117.544 1.29931C118.887 2.15411 119.955 3.31665 120.712 4.8553C121.47 6.39395 121.849 8.20614 121.815 10.3603ZM118.818 10.3261C118.818 8.71903 118.612 7.35134 118.095 6.22299C117.578 5.09465 116.89 4.23984 115.994 3.65857C115.099 3.0773 114.066 2.76957 112.929 2.73538C111.793 2.73538 110.725 3.00892 109.829 3.556C108.9 4.10307 108.176 4.95788 107.625 6.05203C107.074 7.14618 106.799 8.51387 106.764 10.1209C106.764 11.7279 106.971 13.0956 107.488 14.224C108.004 15.3523 108.693 16.2071 109.588 16.7884C110.484 17.3697 111.517 17.6774 112.654 17.6774C113.79 17.6774 114.823 17.4381 115.753 16.8568C116.683 16.3097 117.406 15.4549 117.957 14.3608C118.508 13.2666 118.784 11.8989 118.818 10.2919V10.3261Z" fill="black"/>
<path id="Vector_10" d="M144.751 5.09463L140.102 24.4475L137.416 23.7978L130.907 7.24875H130.734L127.325 21.4043L124.397 20.7205L129.047 1.36768L131.768 2.01733L138.277 18.5664H138.449L141.859 4.41079L144.786 5.09463H144.751Z" fill="black"/>
<path id="Vector_11" d="M170.926 24.9604L168.274 23.4559C168.515 22.8404 168.584 22.225 168.584 21.6437C168.584 21.0624 168.412 20.5154 168.205 19.9683C167.964 19.4554 167.654 18.9767 167.241 18.5322C166.828 18.0877 166.345 17.7116 165.794 17.4039C164.796 16.8226 163.762 16.5491 162.66 16.6174C161.593 16.6516 160.525 17.0278 159.526 17.7458C158.528 18.4638 157.598 19.4896 156.771 20.8915C155.945 22.2934 155.497 23.5927 155.394 24.8236C155.29 26.0545 155.497 27.1487 155.979 28.0719C156.496 29.0292 157.219 29.7815 158.218 30.3285C158.769 30.6363 159.32 30.8756 159.905 31.0124C160.491 31.1492 161.076 31.1834 161.627 31.115C162.178 31.0466 162.764 30.9098 163.28 30.6363C163.797 30.3627 164.279 29.9866 164.727 29.5079L167.379 31.0466C166.759 31.7988 166.036 32.4485 165.209 32.893C164.382 33.3717 163.521 33.6794 162.592 33.8503C161.662 34.0213 160.732 33.9871 159.733 33.8162C158.769 33.6452 157.804 33.2691 156.84 32.722C155.325 31.8672 154.223 30.7389 153.465 29.337C152.707 27.9351 152.363 26.3964 152.466 24.6868C152.569 22.9772 153.155 21.1992 154.223 19.387C155.29 17.5406 156.565 16.1729 158.011 15.2498C159.457 14.3266 160.973 13.8479 162.557 13.8137C164.141 13.7795 165.691 14.1898 167.172 15.0446C168.102 15.5917 168.894 16.2071 169.514 16.9252C170.168 17.6432 170.65 18.4296 170.995 19.3186C171.339 20.1734 171.511 21.0966 171.511 22.054C171.511 23.0114 171.305 24.003 170.926 24.9946V24.9604Z" fill="black"/>
<path id="Vector_12" d="M167.413 39.2869L165.002 37.167L183.703 27.0803L186.32 29.3711L178.365 48.9975L175.954 46.8776L182.635 30.9782L182.532 30.8756L167.378 39.2869H167.413ZM173.026 33.8161L180.81 40.6888L179.122 42.5694L171.339 35.6967L173.026 33.8161Z" fill="black"/>
<path id="Vector_13" d="M179.57 50.6045L195.516 38.5688L199.821 44.2106C200.751 45.4415 201.336 46.6382 201.474 47.7666C201.612 48.8949 201.474 49.9891 201.026 50.9806C200.544 51.9722 199.821 52.827 198.857 53.5793C197.858 54.3315 196.825 54.776 195.757 54.9811C194.655 55.1521 193.587 55.0153 192.52 54.5708C191.452 54.0921 190.419 53.2373 189.489 52.0064L186.527 48.1427L188.559 46.604L191.349 50.2626C191.934 51.049 192.554 51.5619 193.209 51.8354C193.863 52.109 194.517 52.1774 195.137 52.0748C195.792 51.938 196.411 51.6645 196.997 51.1858C197.617 50.7413 198.065 50.2284 198.34 49.6471C198.616 49.0659 198.719 48.4504 198.616 47.7666C198.512 47.0827 198.168 46.3305 197.548 45.5441L195.241 42.5352L181.327 52.998L179.501 50.6045H179.57Z" fill="black"/>
<path id="Vector_14" d="M204.573 55.3915L206.915 54.2289L213.838 68.0084L211.496 69.171L208.706 63.6318L193.105 71.3593L191.762 68.6923L207.363 60.9648L204.573 55.4257V55.3915Z" fill="black"/>
<path id="Vector_15" d="M219.486 86.4039L220.278 89.3102L207.535 92.6952C206.192 93.0714 204.883 93.0714 203.678 92.6952C202.473 92.3533 201.405 91.6695 200.51 90.6779C199.614 89.6863 198.925 88.4212 198.512 86.8826C198.099 85.3439 198.03 83.942 198.305 82.6427C198.581 81.3434 199.166 80.2151 200.027 79.3261C200.888 78.4029 202.025 77.7874 203.368 77.4113L216.111 73.9921L216.903 76.8984L204.401 80.2493C203.54 80.4886 202.817 80.8989 202.232 81.446C201.646 82.0272 201.267 82.7111 201.061 83.4975C200.854 84.2839 200.888 85.2071 201.164 86.1645C201.439 87.1561 201.853 87.9425 202.438 88.558C203.024 89.1734 203.713 89.5496 204.47 89.7547C205.262 89.9599 206.089 89.9257 206.95 89.6863L219.452 86.3355L219.486 86.4039Z" fill="black"/>
<path id="Vector_16" d="M201.371 97.9609L221.38 96.6957L221.828 103.774C221.931 105.312 221.759 106.611 221.277 107.637C220.795 108.697 220.14 109.484 219.211 110.065C218.315 110.646 217.247 110.954 216.008 111.022C214.768 111.091 213.7 110.92 212.736 110.475C211.771 110.031 211.014 109.313 210.428 108.321C209.843 107.33 209.498 106.064 209.395 104.526L209.051 99.1576L211.634 98.9866L211.978 104.081C212.047 105.039 212.219 105.825 212.564 106.406C212.874 106.988 213.321 107.432 213.872 107.671C214.423 107.911 215.078 108.013 215.835 107.979C216.593 107.945 217.247 107.74 217.764 107.432C218.281 107.124 218.694 106.646 218.935 105.996C219.211 105.381 219.279 104.56 219.211 103.568L218.969 99.8072L201.577 100.936L201.371 97.9267V97.9609ZM211.014 107.193L202.3 112.664L202.094 109.244L210.807 103.842L211.014 107.159V107.193Z" fill="black"/>
<path id="Vector_17" d="M202.094 114.681L222 116.972L220.554 129.349L217.971 129.042L219.073 119.639L213.011 118.955L212.013 127.708L209.43 127.4L210.428 118.647L204.333 117.963L203.23 127.503L200.647 127.195L202.094 114.681Z" fill="black"/>
</g>
<g id="Group_3">
<g id="Gb5iwV.tif">
<g id="Group_4">
<path id="Vector_18" d="M79.7632 83.8052C79.7632 83.8052 79.7632 84.1471 79.8321 84.3181C79.9009 83.9762 79.8321 83.6343 79.9009 83.2923C80.1076 81.7879 80.6242 80.4202 81.3474 79.0867C82.2429 77.5138 83.4138 76.1803 84.8603 75.1204C85.7902 74.4365 86.7889 73.8553 87.891 73.445C88.3043 73.3082 88.2699 73.274 88.3387 72.8637C88.4421 71.7012 88.752 70.607 89.3031 69.6154C90.1296 68.0426 91.3006 66.8117 92.8159 65.8885C93.7114 65.3414 94.6757 64.9995 95.6744 64.7943C98.0164 64.3156 100.186 64.7943 102.184 66.0594C102.321 66.1278 102.459 66.2304 102.562 66.2988C102.631 66.3672 102.7 66.333 102.735 66.2646C103.113 65.4098 103.63 64.6576 104.147 63.9053C105.593 61.8538 107.35 60.1784 109.519 58.8791C110.725 58.161 111.999 57.5797 113.342 57.1694C114.444 56.8617 115.546 56.6224 116.683 56.5198C117.613 56.4514 118.577 56.4514 119.507 56.5198C120.368 56.5882 121.194 56.6908 122.021 56.8959C123.158 57.1353 124.26 57.4772 125.293 57.9559C127.187 58.8107 128.875 59.939 130.39 61.3751C131.733 62.6744 132.801 64.1447 133.696 65.7517C134.523 67.2904 135.074 68.9316 135.418 70.607C135.625 71.7012 135.728 72.7953 135.728 73.8895C135.728 74.1288 135.728 74.334 135.694 74.5733C135.694 74.6759 135.694 74.7101 135.797 74.7443C136.589 74.8468 137.381 75.0178 138.139 75.2572C140.068 75.9068 141.755 76.9326 143.133 78.437C144.235 79.668 145.096 81.0356 145.612 82.6427C145.991 83.8736 146.232 85.1045 146.198 86.4038C146.163 87.7715 145.888 89.0708 145.406 90.3359C144.717 92.1481 143.649 93.6868 142.168 94.9519C140.515 96.3538 138.656 97.277 136.52 97.6873C135.59 97.8582 134.626 97.8582 133.696 97.8582C126.154 97.8582 118.646 97.8582 111.104 97.8582C105.972 97.8582 100.806 97.8582 95.6744 97.8582C94.5035 97.8582 93.3325 97.8582 92.1616 97.8582C91.6105 97.8582 91.0939 97.8582 90.5429 97.7557C89.3719 97.5505 88.201 97.2086 87.1333 96.6957C84.5503 95.4648 82.5873 93.6184 81.2441 91.1224C80.5209 89.8231 80.1076 88.4212 79.9009 86.9509C79.8665 86.7116 79.9009 86.438 79.9009 86.1645C79.9009 86.1303 79.9009 86.0961 79.9009 86.0277C79.8321 86.2671 79.9009 86.5064 79.7976 86.7116V83.8052H79.7632ZM113.48 95.2596C120.402 95.2596 127.325 95.2596 134.213 95.2596C134.902 95.2596 135.59 95.2596 136.245 95.0887C138.311 94.6442 140.033 93.6184 141.411 92.0114C142.513 90.7121 143.167 89.2418 143.408 87.5664C143.58 86.5064 143.546 85.4465 143.339 84.3865C143.167 83.4291 142.788 82.5059 142.306 81.6511C141.583 80.3176 140.515 79.2918 139.241 78.4712C137.863 77.5822 136.348 77.1377 134.729 77.0693C134.109 77.0693 133.524 77.0693 132.904 77.0693C132.766 77.0693 132.732 77.0352 132.766 76.8984C132.835 76.4539 132.87 76.0094 132.938 75.5307C133.145 74.0262 133.111 72.4876 132.835 71.0173C132.387 68.6922 131.458 66.6065 129.977 64.7601C129.185 63.7344 128.289 62.8454 127.256 62.0589C125.121 60.4519 122.71 59.4945 120.092 59.1868C118.749 59.0158 117.406 59.05 116.063 59.221C114.031 59.5287 112.171 60.2126 110.415 61.2725C109.14 62.0589 108.038 63.0163 107.074 64.1447C106.351 64.9653 105.731 65.8543 105.214 66.8459C104.629 67.9058 104.25 69.0684 103.802 70.1967C103.768 70.3335 103.768 70.5044 103.63 70.5386C103.561 70.5386 103.423 70.3677 103.355 70.2993C102.804 69.7522 102.287 69.1709 101.701 68.6922C99.3251 66.7775 95.95 66.7091 93.5047 68.5213C91.8172 69.7864 90.9217 71.496 90.8528 73.6159C90.8528 74.0604 90.8529 74.5049 90.8873 74.9494C90.8873 75.1204 90.8184 75.1888 90.6462 75.223C89.4753 75.4965 88.3732 75.8726 87.34 76.4881C85.9624 77.3087 84.8259 78.4028 83.9649 79.7705C83.1383 81.0698 82.6217 82.4717 82.4495 84.0104C82.3117 85.2413 82.3806 86.438 82.6906 87.6348C83.1727 89.6179 84.2059 91.2933 85.7213 92.661C87.0645 93.8578 88.6143 94.61 90.3707 95.0545C91.1973 95.2596 91.9894 95.2938 92.8504 95.2938C99.7384 95.2938 106.626 95.2938 113.514 95.2938L113.48 95.2596Z" fill="black"/>
<path id="Vector_19" d="M126.291 81.4801C126.291 82.711 126.085 84.1471 125.396 85.4464C124.535 87.0535 123.192 88.0792 121.401 88.4895C120.058 88.7973 118.715 88.7631 117.371 88.3528C115.684 87.8057 114.513 86.7115 113.755 85.1387C113.411 84.4207 113.239 83.6342 113.101 82.8478C112.963 81.9246 112.963 81.0014 113.101 80.0782C113.273 78.9157 113.617 77.8557 114.272 76.8642C115.167 75.5649 116.407 74.7443 117.957 74.4023C118.956 74.163 119.954 74.163 120.953 74.3339C121.986 74.5049 122.951 74.881 123.777 75.5649C124.81 76.3855 125.465 77.4454 125.878 78.7106C126.154 79.5654 126.257 80.4544 126.291 81.5143V81.4801ZM123.33 81.4117C123.33 80.7621 123.295 80.0782 123.088 79.4628C122.882 78.7447 122.537 78.0951 121.952 77.5822C121.263 76.9667 120.437 76.6932 119.507 76.7274C118.198 76.7616 117.234 77.3771 116.579 78.5054C116.063 79.4628 115.891 80.4886 115.925 81.5485C115.925 82.4375 116.063 83.3265 116.476 84.1471C117.475 86.1987 119.507 86.4722 121.091 85.8225C121.849 85.5148 122.365 84.9335 122.744 84.1813C123.192 83.2923 123.33 82.3349 123.33 81.3775V81.4117Z" fill="black"/>
<path id="Vector_20" d="M109.864 79.3602C109.451 79.3602 109.003 79.3602 108.59 79.3602C108.452 79.3602 108.383 79.326 108.348 79.1551C108.039 77.8558 107.212 77.0693 105.903 76.7958C104.732 76.5565 103.63 76.7616 102.7 77.6164C102.115 78.1635 101.805 78.8473 101.633 79.5996C101.323 81.0015 101.288 82.4033 101.805 83.771C102.149 84.6942 102.7 85.4806 103.665 85.8568C104.973 86.3355 106.213 86.2671 107.35 85.4123C107.901 85.002 108.211 84.4549 108.348 83.8052C108.348 83.7026 108.417 83.6685 108.521 83.6685C109.382 83.6685 110.277 83.6685 111.138 83.6685C111.241 83.6685 111.276 83.6685 111.276 83.8052C111.069 85.5148 110.208 86.8141 108.762 87.7031C107.763 88.3186 106.626 88.5921 105.456 88.6605C104.216 88.7289 103.045 88.5238 101.943 88.0109C100.29 87.2245 99.2908 85.9251 98.7742 84.2155C98.3264 82.8136 98.2576 81.3434 98.4986 79.9073C98.7053 78.608 99.153 77.3771 100.014 76.3513C101.047 75.1546 102.356 74.5049 103.906 74.2656C105.18 74.0604 106.42 74.163 107.591 74.6417C109.382 75.3255 110.587 76.5565 111.138 78.4028C111.207 78.6764 111.241 78.9157 111.276 79.1893C111.276 79.2918 111.276 79.3602 111.138 79.3602C110.69 79.3602 110.277 79.3602 109.829 79.3602H109.864Z" fill="black"/>
<path id="Vector_21" d="M131.01 91.3275C129.977 91.3275 128.978 91.3275 127.945 91.3275C127.807 91.3275 127.807 91.2933 127.807 91.1565C127.807 90.712 127.807 90.2333 127.807 89.7888C127.807 89.6863 127.841 89.6179 127.91 89.5495C128.806 88.7631 129.736 87.9767 130.631 87.2244C130.907 86.9851 131.182 86.7115 131.458 86.438C131.699 86.1645 131.871 85.8567 131.802 85.4464C131.699 85.0019 131.285 84.7284 130.769 84.7284C130.252 84.7284 129.804 85.0361 129.804 85.6516C129.804 85.72 129.77 85.7542 129.701 85.7542C129.047 85.7542 128.427 85.7542 127.773 85.7542C127.635 85.7542 127.635 85.6858 127.635 85.5832C127.704 84.4549 128.22 83.6684 129.253 83.2239C129.908 82.9162 130.631 82.882 131.32 82.9162C131.802 82.9504 132.25 83.0188 132.697 83.2239C134.282 83.942 134.454 85.72 133.696 86.7799C133.283 87.3612 132.766 87.7715 132.215 88.216C131.836 88.5237 131.423 88.8657 131.044 89.2076C131.01 89.2418 130.907 89.3102 130.941 89.3785C130.941 89.4469 131.079 89.4469 131.113 89.4469C132.078 89.4469 133.042 89.4469 134.006 89.4469C134.144 89.4469 134.213 89.4469 134.213 89.6521C134.213 90.165 134.213 90.6778 134.213 91.1907C134.213 91.3275 134.144 91.3617 134.041 91.3617C133.007 91.3617 131.974 91.3617 130.941 91.3617L131.01 91.3275Z" fill="black"/>
</g>
</g>
<g id="Group_5">
<g id="Group_6">
<path id="Vector_22" d="M63.3374 118.647V133.555H60.6167V121.28H60.5134L57.0005 123.502V121.041L60.72 118.647H63.303H63.3374Z" fill="black"/>
<path id="Vector_23" d="M72.7053 133.863C71.4999 133.863 70.4668 133.555 69.6058 132.94C68.7448 132.324 68.0904 131.435 67.6082 130.307C67.1605 129.144 66.9194 127.777 66.9194 126.135C66.9194 124.494 67.1605 123.126 67.6082 121.964C68.056 120.835 68.7448 119.946 69.6058 119.331C70.4668 118.716 71.4999 118.442 72.7053 118.442C73.9107 118.442 74.9439 118.75 75.8049 119.331C76.6659 119.946 77.3203 120.801 77.8025 121.964C78.2502 123.092 78.4913 124.494 78.4913 126.101C78.4913 127.708 78.2502 129.11 77.8025 130.273C77.3547 131.435 76.6659 132.324 75.8049 132.905C74.9439 133.521 73.9107 133.829 72.7053 133.829V133.863ZM72.7053 131.572C73.6352 131.572 74.3929 131.127 74.9439 130.204C75.495 129.281 75.7705 127.913 75.7705 126.135C75.7705 124.939 75.6327 123.947 75.3917 123.161C75.1506 122.34 74.8062 121.759 74.324 121.348C73.8763 120.938 73.3253 120.733 72.7053 120.733C71.7755 120.733 71.0178 121.177 70.5012 122.101C69.9502 123.024 69.6746 124.357 69.6746 126.135C69.6746 127.332 69.778 128.324 70.0535 129.144C70.2945 129.965 70.639 130.58 71.1211 130.991C71.5688 131.401 72.1199 131.606 72.7398 131.606L72.7053 131.572Z" fill="black"/>
<path id="Vector_24" d="M80.9707 133.589V118.681H83.6226V133.589H80.9707ZM83.3815 130.067V126.887H83.7948L87.8587 122.408H90.9583L85.9645 127.913H85.4135L83.3815 130.067ZM88.0309 133.589L84.3458 128.495L86.1367 126.648L91.1994 133.589H88.0309Z" fill="black"/>
<path id="Vector_25" d="M97.1576 138C96.1932 138 95.4011 137.863 94.7123 137.624C94.0235 137.385 93.4725 137.043 93.0592 136.598C92.6459 136.188 92.3704 135.709 92.1982 135.162L94.5746 134.581C94.6779 134.786 94.8501 135.025 95.0567 135.23C95.2634 135.436 95.5389 135.641 95.8833 135.778C96.2277 135.914 96.6754 135.983 97.192 135.983C97.9497 135.983 98.5696 135.812 99.0518 135.436C99.5339 135.059 99.775 134.478 99.775 133.658V131.538H99.6372C99.4995 131.811 99.2928 132.085 99.0518 132.392C98.8107 132.7 98.4318 132.905 98.0186 133.111C97.6053 133.316 97.0542 133.384 96.3999 133.384C95.5389 133.384 94.7468 133.179 94.058 132.769C93.3692 132.358 92.7837 131.743 92.3704 130.956C91.9571 130.136 91.7505 129.144 91.7505 127.913C91.7505 126.682 91.9571 125.657 92.3704 124.802C92.7837 123.947 93.3347 123.297 94.058 122.887C94.7812 122.443 95.5389 122.237 96.3999 122.237C97.0542 122.237 97.6053 122.34 98.0186 122.579C98.4318 122.819 98.7762 123.058 99.0518 123.366C99.2928 123.673 99.4995 123.947 99.6372 124.221H99.775V122.374H102.392V133.76C102.392 134.718 102.151 135.504 101.704 136.119C101.256 136.735 100.602 137.214 99.8094 137.521C99.0173 137.829 98.0874 138 97.0887 138H97.1576ZM97.1576 131.333C97.7086 131.333 98.1908 131.196 98.604 130.922C99.0173 130.649 99.2928 130.273 99.4995 129.76C99.7061 129.247 99.8094 128.631 99.8094 127.913C99.8094 127.195 99.7061 126.58 99.4995 126.067C99.2928 125.52 98.9829 125.11 98.604 124.836C98.2252 124.562 97.743 124.391 97.1576 124.391C96.5721 124.391 96.0555 124.528 95.6766 124.836C95.2634 125.144 94.9878 125.554 94.7812 126.101C94.5746 126.648 94.4712 127.229 94.4712 127.913C94.4712 128.597 94.5746 129.213 94.7812 129.725C94.9878 130.238 95.2978 130.649 95.6766 130.922C96.0899 131.196 96.5721 131.333 97.1576 131.333Z" fill="black"/>
</g>
<g id="Group_7">
<path id="Vector_26" d="M126.742 124.631H123.986C123.917 124.186 123.78 123.776 123.573 123.434C123.366 123.092 123.091 122.784 122.781 122.545C122.471 122.306 122.127 122.135 121.713 121.998C121.3 121.861 120.887 121.827 120.439 121.827C119.612 121.827 118.889 122.032 118.269 122.443C117.649 122.853 117.133 123.434 116.788 124.221C116.444 125.007 116.237 125.964 116.237 127.058C116.237 128.153 116.41 129.144 116.788 129.931C117.133 130.717 117.649 131.298 118.269 131.709C118.889 132.119 119.612 132.29 120.439 132.29C120.887 132.29 121.3 132.222 121.713 132.119C122.127 132.016 122.471 131.811 122.781 131.606C123.091 131.367 123.366 131.093 123.573 130.751C123.78 130.409 123.952 130.033 124.021 129.589H126.776C126.673 130.307 126.466 130.991 126.122 131.606C125.777 132.222 125.33 132.769 124.778 133.247C124.227 133.726 123.608 134.102 122.85 134.341C122.127 134.615 121.3 134.752 120.405 134.752C119.096 134.752 117.89 134.444 116.857 133.829C115.824 133.213 114.998 132.358 114.412 131.196C113.827 130.033 113.517 128.666 113.517 127.058C113.517 125.451 113.827 124.084 114.412 122.921C114.998 121.793 115.824 120.904 116.857 120.288C117.89 119.673 119.061 119.365 120.37 119.365C121.197 119.365 121.989 119.468 122.712 119.707C123.435 119.946 124.055 120.288 124.641 120.733C125.192 121.177 125.674 121.725 126.018 122.374C126.397 123.024 126.604 123.776 126.742 124.597V124.631Z" fill="black"/>
<path id="Vector_27" d="M134.628 134.786C133.423 134.786 132.39 134.478 131.529 133.863C130.668 133.247 130.013 132.358 129.531 131.23C129.083 130.067 128.842 128.7 128.842 127.058C128.842 125.417 129.083 124.05 129.531 122.887C129.979 121.759 130.668 120.87 131.529 120.254C132.39 119.639 133.423 119.365 134.628 119.365C135.834 119.365 136.867 119.673 137.728 120.254C138.589 120.87 139.243 121.724 139.725 122.887C140.173 124.015 140.414 125.417 140.414 127.024C140.414 128.631 140.173 130.033 139.725 131.196C139.278 132.358 138.589 133.247 137.728 133.829C136.867 134.444 135.834 134.752 134.628 134.752V134.786ZM134.628 132.495C135.558 132.495 136.316 132.051 136.867 131.127C137.418 130.204 137.693 128.836 137.693 127.058C137.693 125.862 137.556 124.87 137.315 124.084C137.073 123.263 136.729 122.682 136.247 122.272C135.799 121.861 135.248 121.656 134.628 121.656C133.698 121.656 132.941 122.101 132.424 123.024C131.873 123.947 131.597 125.28 131.597 127.058C131.597 128.255 131.701 129.247 131.976 130.067C132.217 130.888 132.562 131.503 133.044 131.914C133.492 132.324 134.043 132.529 134.663 132.529L134.628 132.495Z" fill="black"/>
<path id="Vector_28" d="M142.86 134.512V132.563L148.06 127.503C148.577 126.99 148.99 126.546 149.3 126.17C149.644 125.793 149.885 125.417 150.058 125.041C150.23 124.665 150.299 124.289 150.299 123.879C150.299 123.4 150.195 122.99 149.989 122.682C149.782 122.374 149.472 122.066 149.093 121.895C148.714 121.725 148.301 121.622 147.819 121.622C147.337 121.622 146.889 121.725 146.51 121.93C146.131 122.135 145.856 122.408 145.649 122.784C145.443 123.161 145.339 123.605 145.339 124.118H142.756C142.756 123.161 142.963 122.34 143.411 121.656C143.858 120.972 144.444 120.425 145.202 120.049C145.959 119.673 146.855 119.468 147.853 119.468C148.852 119.468 149.748 119.639 150.505 120.015C151.263 120.391 151.848 120.904 152.296 121.554C152.744 122.203 152.916 122.955 152.916 123.776C152.916 124.323 152.813 124.87 152.606 125.417C152.4 125.964 152.021 126.546 151.47 127.195C150.919 127.845 150.161 128.631 149.197 129.589L146.614 132.187V132.29H153.157V134.547H142.86V134.512Z" fill="black"/>
<path id="Vector_29" d="M155.843 134.512V119.605H165.624V121.861H158.564V125.896H165.108V128.153H158.564V132.221H165.659V134.478H155.843V134.512Z" fill="black"/>
</g>
</g>
</g>
</g>
</g>
</g>
<defs>
<clipPath id="clip0_880_62517">
<rect width="222" height="138" fill="white"/>
</clipPath>
</defs>
</svg>
