<svg width="103" height="103" viewBox="0 0 103 103" fill="none" xmlns="http://www.w3.org/2000/svg">
<g id="Donate badge 1" clip-path="url(#clip0_1899_3327)">
<g id="Layer 1">
<g id="Group">
<path id="Vector" d="M51.5 103C23.0962 103 0 79.9038 0 51.5C0 23.0962 23.0962 0 51.5 0C79.9038 0 103 23.0962 103 51.5C103 79.9038 79.9038 103 51.5 103ZM51.5 2.22078C24.3398 2.22078 2.22078 24.3398 2.22078 51.5C2.22078 78.6602 24.3398 100.779 51.5 100.779C78.6602 100.779 100.779 78.6602 100.779 51.5C100.779 24.3398 78.6824 2.22078 51.5 2.22078Z" fill="black"/>
<g id="Group_2">
<path id="Vector_2" d="M14.5461 30.6914C14.3685 30.6692 14.213 30.647 14.0354 30.6914C13.8799 30.6914 13.7245 30.7581 13.569 30.8247C13.4357 30.8913 13.3025 31.0023 13.1693 31.1134C13.0582 31.2244 12.9472 31.3799 12.8583 31.5575C12.7029 31.8684 12.6363 32.1794 12.6807 32.5125C12.7029 32.8234 12.8361 33.1343 13.0804 33.423C13.3247 33.7117 13.6356 33.9782 14.0798 34.1781C14.5239 34.4001 14.9237 34.5112 15.279 34.5334C15.6565 34.5334 15.9674 34.4668 16.2561 34.3113C16.5448 34.1559 16.7669 33.9116 16.9224 33.5784C17.0778 33.2897 17.1445 33.001 17.1445 32.7345C17.1445 32.4681 17.0556 32.2238 16.9224 32.0017C16.7669 31.7796 16.5671 31.602 16.2784 31.4465L16.4338 31.2244L15.6343 32.8012L14.8126 32.3792L15.9897 30.0474L16.6781 30.4027C17.1667 30.647 17.5442 30.9801 17.7885 31.3577C18.0328 31.7574 18.166 32.1794 18.1882 32.6457C18.1882 33.1121 18.0772 33.5784 17.8329 34.067C17.5664 34.6 17.2111 34.9998 16.7669 35.2885C16.3228 35.5549 15.8342 35.7104 15.279 35.7104C14.7238 35.7104 14.1464 35.5549 13.5246 35.244C13.0582 34.9998 12.6807 34.7333 12.3698 34.4223C12.0811 34.1114 11.859 33.7561 11.7257 33.4008C11.5925 33.0233 11.5259 32.6457 11.5703 32.2682C11.5925 31.8907 11.7035 31.4909 11.9034 31.1134C12.0589 30.8025 12.2587 30.5138 12.503 30.2917C12.7473 30.0696 12.9916 29.8919 13.2803 29.7587C13.569 29.6255 13.8577 29.5588 14.1464 29.5366C14.4573 29.5366 14.7682 29.5588 15.0569 29.6477L14.5239 30.7136L14.5461 30.6914Z" fill="black"/>
<path id="Vector_3" d="M14.9015 26.2275L20.2758 29.803L19.6317 30.7801L14.2574 27.2047L14.9015 26.2275Z" fill="black"/>
<path id="Vector_4" d="M16.4782 24.0069L21.4528 25.9833L21.4972 25.9389L18.6768 21.3863L19.4985 20.4092L22.9851 26.3165L22.0524 27.4269L15.6565 25.0062L16.4782 24.0291V24.0069Z" fill="black"/>
<path id="Vector_5" d="M24.9616 24.14L20.6977 19.2765L23.8512 16.5005L24.4953 17.2333L22.2078 19.2321L23.3627 20.5423L25.4724 18.6991L26.1164 19.4319L24.0067 21.2974L25.1615 22.6076L27.4711 20.5867L28.1151 21.3196L24.9394 24.0956L24.9616 24.14Z" fill="black"/>
<path id="Vector_6" d="M30.6468 19.543L27.4267 13.9244L29.5809 12.703C29.9806 12.4809 30.3581 12.3476 30.6912 12.3254C31.0244 12.3032 31.3353 12.3476 31.6018 12.5031C31.8683 12.6363 32.0681 12.8584 32.2236 13.1249C32.3568 13.347 32.4235 13.5691 32.4235 13.7911C32.4235 14.0132 32.379 14.2131 32.2902 14.3908C32.2014 14.5684 32.0681 14.7461 31.9127 14.9015V14.946C32.157 14.8349 32.379 14.7905 32.6233 14.7905C32.8676 14.7905 33.1119 14.8571 33.334 14.9904C33.5561 15.1236 33.7559 15.3235 33.9336 15.6122C34.1113 15.9009 34.1779 16.2118 34.1779 16.5227C34.1779 16.8336 34.0668 17.1445 33.8448 17.4332C33.6449 17.7219 33.3118 17.9884 32.8898 18.2549L30.6246 19.5652L30.6468 19.543ZM29.8029 15.7454L30.8023 15.168C30.9799 15.0792 31.1132 14.946 31.2242 14.7905C31.3353 14.6573 31.3797 14.4796 31.4019 14.3241C31.4019 14.1465 31.3797 13.991 31.2909 13.8356C31.1798 13.6135 30.9799 13.4802 30.7579 13.4358C30.5136 13.3914 30.2693 13.4358 29.9584 13.6135L28.9368 14.2131L29.8251 15.7676L29.8029 15.7454ZM31.1576 18.1217L32.2458 17.4999C32.6233 17.3 32.8454 17.0557 32.912 16.8336C33.0009 16.6115 32.9787 16.3673 32.8454 16.1452C32.7566 15.9675 32.6233 15.8565 32.4679 15.7676C32.3124 15.6788 32.1348 15.6344 31.9349 15.6566C31.735 15.6566 31.5351 15.7232 31.3353 15.8565L30.2249 16.5005L31.1576 18.1439V18.1217Z" fill="black"/>
<path id="Vector_7" d="M36.3542 16.5004L35.1994 16.9445L35.0218 10.1045L36.3765 9.59375L40.818 14.8126L39.641 15.2568L36.1988 11.0817H36.1544L36.3765 16.5004H36.3542ZM35.4881 14.1242L38.6639 12.9027L38.997 13.7688L35.8213 14.9903L35.4881 14.1019V14.1242Z" fill="black"/>
<path id="Vector_8" d="M45.6593 9.3939L44.5045 9.63818C44.4379 9.46052 44.3269 9.30507 44.2158 9.17182C44.1048 9.03857 43.9493 8.94974 43.7939 8.86091C43.6384 8.79428 43.483 8.72766 43.3053 8.72766C43.1276 8.72766 42.9278 8.72766 42.7501 8.77208C42.3948 8.8387 42.1061 8.99416 41.884 9.21623C41.6619 9.43831 41.5065 9.74922 41.4176 10.1045C41.3288 10.4599 41.351 10.8818 41.4398 11.3704C41.5509 11.859 41.7063 12.2365 41.9284 12.5474C42.1505 12.8583 42.417 13.0582 42.7057 13.1692C42.9944 13.2803 43.3275 13.3025 43.6606 13.2359C43.8383 13.1914 44.016 13.1248 44.1714 13.0582C44.3269 12.9694 44.4601 12.8583 44.5712 12.7473C44.6822 12.614 44.771 12.4808 44.8376 12.3031C44.9043 12.1477 44.9265 11.97 44.9265 11.7701L46.0813 11.5258C46.0813 11.8368 46.0813 12.1255 45.9925 12.4364C45.9036 12.7251 45.7704 12.9916 45.5705 13.2581C45.3706 13.5023 45.1486 13.7244 44.8599 13.9021C44.5712 14.0798 44.238 14.213 43.8605 14.2796C43.3053 14.3907 42.7723 14.3685 42.2837 14.213C41.7952 14.0575 41.3732 13.7466 41.0179 13.3247C40.6626 12.9027 40.4183 12.3253 40.285 11.6591C40.1518 10.9707 40.1518 10.371 40.285 9.83805C40.4405 9.30506 40.707 8.86091 41.0845 8.50558C41.4621 8.15026 41.9284 7.92818 42.4836 7.81714C42.8389 7.75052 43.1721 7.72831 43.5052 7.75052C43.8383 7.79493 44.127 7.88376 44.4157 8.01701C44.7044 8.15026 44.9265 8.35013 45.1486 8.59441C45.3706 8.8387 45.5261 9.1274 45.6371 9.46052L45.6593 9.3939Z" fill="black"/>
<path id="Vector_9" d="M47.4582 13.5246L47.1695 7.06216L48.3465 7.01774L48.4797 9.97139H48.5686L50.9448 6.88449L52.3661 6.81787L49.9899 9.81593L52.677 13.2581L51.2779 13.3248L49.2348 10.6376L48.5686 11.5037L48.6574 13.4358L47.4804 13.4802L47.4582 13.5246Z" fill="black"/>
<path id="Vector_10" d="M56.6522 13.6357L56.1636 6.95117L57.3851 7.19546L57.5627 12.0812H57.6294L59.8057 7.68403L60.9383 7.90611L61.2048 12.814H61.2492L63.3368 8.39468L64.5582 8.63897L61.4713 14.6129L60.3387 14.3908L59.9834 9.68274H59.939L57.7626 13.8578L56.63 13.6357H56.6522Z" fill="black"/>
<path id="Vector_11" d="M67.1121 9.74935L64.9135 15.8343L63.8031 15.4346L66.0017 9.34961L67.1121 9.74935Z" fill="black"/>
<path id="Vector_12" d="M68.1559 11.1483L68.5778 10.26L73.2193 12.5252L72.7973 13.4135L70.9985 12.5474L68.6 17.4776L67.5563 16.9668L69.9547 12.0366L68.1559 11.1705V11.1483Z" fill="black"/>
<path id="Vector_13" d="M71.0873 18.7213L74.796 13.4358L75.751 14.102L74.1742 16.345L76.6171 18.0772L78.1938 15.8342L79.1488 16.5005L75.4401 21.7859L74.4851 21.1197L76.0619 18.8767L73.619 17.1667L72.0423 19.4097L71.0873 18.7435V18.7213Z" fill="black"/>
<path id="Vector_14" d="M77.8607 23.9401L82.6132 19.5652L84.2788 21.3862C84.5897 21.7416 84.8118 22.0747 84.9006 22.3856C84.9894 22.7187 85.0116 23.0296 84.9228 23.2961C84.834 23.5848 84.6785 23.8291 84.4564 24.0512C84.2566 24.2288 84.0567 24.3399 83.8568 24.4065C83.657 24.4509 83.4571 24.4509 83.2572 24.4065C83.0574 24.3621 82.8575 24.2732 82.6798 24.1622L82.6354 24.2066C82.7909 24.3843 82.8797 24.5842 82.9241 24.8284C82.9685 25.0727 82.9685 25.317 82.8797 25.5835C82.7909 25.85 82.6354 26.0721 82.3911 26.2942C82.1468 26.5162 81.8803 26.6717 81.5694 26.7161C81.2585 26.7827 80.9476 26.7161 80.6145 26.6051C80.2814 26.4718 79.9482 26.2275 79.6151 25.85L77.8385 23.9179L77.8607 23.9401ZM79.3708 24.14L80.2147 25.0727C80.5034 25.3836 80.7699 25.5613 81.0142 25.5835C81.2585 25.6057 81.4806 25.5391 81.6583 25.3614C81.7915 25.2282 81.9025 25.0727 81.947 24.8951C81.9914 24.7174 81.9914 24.5397 81.947 24.3399C81.9025 24.14 81.7915 23.9623 81.6138 23.7847L80.7477 22.8297L79.3486 24.1178L79.3708 24.14ZM81.3918 22.2968L82.169 23.1406C82.3023 23.2961 82.4577 23.4071 82.6132 23.4738C82.7686 23.5404 82.9463 23.5626 83.1018 23.5404C83.2572 23.5182 83.4127 23.4294 83.5681 23.3183C83.7458 23.1406 83.8346 22.9408 83.8346 22.6965C83.8346 22.4522 83.7236 22.2079 83.4793 21.9636L82.6798 21.0975L81.3695 22.2968H81.3918Z" fill="black"/>
<path id="Vector_15" d="M87.4545 25.2948L82.2579 29.1367L81.5694 28.204L86.7661 24.3621L87.4545 25.2948Z" fill="black"/>
<path id="Vector_16" d="M82.9907 30.0695L88.5649 26.8049L89.7863 28.8925C90.0306 29.3144 90.1639 29.7142 90.1861 30.0917C90.1861 30.4692 90.1194 30.8023 89.9418 31.1133C89.7641 31.4242 89.4976 31.6684 89.1423 31.8905C88.787 32.0904 88.4316 32.2014 88.0763 32.2014C87.721 32.2014 87.3879 32.0904 87.077 31.8905C86.7661 31.6907 86.4774 31.3575 86.2331 30.9356L85.367 29.4477L86.2109 28.9591L87.0103 30.3138C87.1658 30.5581 87.3213 30.7579 87.4767 30.869C87.6322 30.98 87.8098 31.0466 87.9875 31.0466C88.1652 31.0466 88.365 30.98 88.5649 30.869C88.7648 30.7579 88.898 30.6247 89.0091 30.447C89.0979 30.2916 89.1423 30.1139 89.1201 29.8918C89.1201 29.692 89.0091 29.4699 88.8758 29.2034L88.3428 28.2706L83.6125 31.0466L83.0129 30.0251L82.9907 30.0695ZM87.2102 31.4686L85.5002 34.3334L84.834 33.2008L86.5662 30.3582L87.2102 31.4686Z" fill="black"/>
<path id="Vector_17" d="M85.7001 34.933L91.6296 32.3569L92.0959 33.4229L87.077 35.5993L88.2096 38.2198L87.3213 38.5973L85.7223 34.9108L85.7001 34.933Z" fill="black"/>
</g>
<g id="Group_3">
<path id="Vector_18" d="M12.8583 57.9846C13.1248 57.9402 13.3247 57.7848 13.4802 57.5627C13.6134 57.3406 13.68 57.0519 13.6356 56.6966C13.6356 56.4523 13.569 56.2524 13.4802 56.0747C13.3913 55.8971 13.2803 55.786 13.147 55.6972C13.0138 55.6084 12.8583 55.5862 12.7029 55.5862C12.5696 55.5862 12.4586 55.6306 12.3698 55.6972C12.2809 55.7638 12.1921 55.8527 12.1477 55.9637C12.0811 56.0747 12.0367 56.208 11.9922 56.3412C11.9478 56.4745 11.9256 56.6077 11.9034 56.741L11.7924 57.3628C11.748 57.6071 11.7035 57.8514 11.6147 58.0735C11.5259 58.2955 11.437 58.5176 11.3038 58.7175C11.1705 58.9174 10.9929 59.0728 10.8152 59.1838C10.6154 59.2949 10.3711 59.3837 10.1046 59.4059C9.72704 59.4281 9.39392 59.3615 9.08301 59.1838C8.7721 59.0062 8.52781 58.7619 8.35015 58.4066C8.17249 58.0512 8.03924 57.6293 8.01703 57.0963C7.97262 56.5855 8.01703 56.1636 8.15028 55.786C8.28353 55.4085 8.4834 55.0976 8.74989 54.8755C9.03859 54.6534 9.39392 54.498 9.81587 54.4536L9.9047 55.6084C9.68262 55.6528 9.50496 55.7194 9.3495 55.8527C9.21626 55.9859 9.10522 56.1636 9.0608 56.3634C9.01639 56.5633 8.97197 56.7854 8.99418 57.0297C8.99418 57.274 9.0608 57.496 9.17184 57.6959C9.26067 57.8736 9.37171 58.029 9.52717 58.1179C9.68262 58.2289 9.83808 58.2511 10.0157 58.2511C10.1934 58.2511 10.3267 58.1845 10.4155 58.0735C10.5265 57.9624 10.5931 57.8292 10.6598 57.6515C10.7264 57.4738 10.7708 57.274 10.8152 57.0297L10.9485 56.2968C11.0373 55.7416 11.215 55.3197 11.4815 54.9866C11.7257 54.6534 12.1033 54.4758 12.5474 54.4314C12.925 54.4092 13.2581 54.4758 13.569 54.6534C13.8577 54.8311 14.1242 55.0976 14.3019 55.4529C14.4795 55.786 14.5906 56.1858 14.635 56.6522C14.6794 57.1185 14.635 57.5183 14.5017 57.8736C14.3685 58.2289 14.1686 58.5176 13.9021 58.7397C13.6356 58.9618 13.3247 59.095 12.9694 59.1172L12.8806 57.9846H12.8583Z" fill="black"/>
<path id="Vector_19" d="M15.812 63.9364L16.0785 65.069L11.97 66.0683C11.5259 66.1794 11.1039 66.1794 10.7042 66.0461C10.3044 65.9129 9.97133 65.6908 9.68263 65.3577C9.39392 65.0246 9.19405 64.6026 9.0608 64.0919C8.92756 63.5811 8.92756 63.1147 9.01639 62.6705C9.10522 62.2486 9.30509 61.8711 9.59379 61.5824C9.8825 61.2937 10.26 61.0938 10.7042 60.9827L14.8126 59.9834L15.0791 61.116L11.0817 62.0931C10.8152 62.1598 10.5931 62.2708 10.4155 62.4263C10.2378 62.5817 10.1268 62.8038 10.0602 63.0259C9.99354 63.2702 9.99354 63.5367 10.0602 63.8254C10.1268 64.1141 10.2378 64.3583 10.4155 64.536C10.5931 64.7137 10.793 64.8469 11.0151 64.9135C11.2372 64.9802 11.5037 64.9802 11.748 64.9135L15.7454 63.9364H15.812Z" fill="black"/>
<path id="Vector_20" d="M10.5487 68.6667L16.5004 66.1572L17.4332 68.378C17.633 68.8444 17.6997 69.2441 17.6774 69.6439C17.633 70.0214 17.4998 70.3545 17.2777 70.6432C17.0556 70.9319 16.7447 71.154 16.3672 71.3094C15.9897 71.4649 15.6121 71.5315 15.2568 71.4871C14.9015 71.4427 14.5683 71.3094 14.2574 71.0652C13.9465 70.8209 13.7022 70.4655 13.5246 70.0214L12.9028 68.5335L13.7911 68.1559L14.3463 69.4884C14.4573 69.7549 14.5906 69.9548 14.7682 70.088C14.9459 70.2213 15.1235 70.2879 15.3234 70.3101C15.5233 70.3101 15.7232 70.2879 15.9452 70.1991C16.1673 70.1102 16.3228 69.9992 16.456 69.8437C16.5893 69.6883 16.6559 69.5106 16.6781 69.3107C16.6781 69.1109 16.6559 68.8666 16.5226 68.6001L16.1007 67.6229L11.0595 69.7549L10.5931 68.6667H10.5487Z" fill="black"/>
<path id="Vector_21" d="M13.2137 74.5961L18.7212 71.2205L19.9871 73.2858C20.2536 73.7077 20.3868 74.1075 20.409 74.485C20.4312 74.8625 20.3424 75.2179 20.1647 75.5288C19.9871 75.8397 19.7206 76.1062 19.3652 76.3283C19.0099 76.5503 18.6546 76.6614 18.2771 76.6836C17.9217 76.6836 17.5664 76.617 17.2333 76.4171C16.9002 76.2172 16.5893 75.9063 16.345 75.4844L15.5011 74.1075L16.3228 73.5967L17.0778 74.8403C17.2333 75.0846 17.3887 75.2623 17.5886 75.3733C17.7663 75.4844 17.9661 75.5288 18.166 75.5066C18.3659 75.5066 18.5658 75.4177 18.7656 75.3067C18.9655 75.1957 19.0987 75.0402 19.2098 74.8848C19.2986 74.7071 19.3652 74.5294 19.343 74.3073C19.343 74.1075 19.2542 73.8632 19.0987 73.6189L18.5436 72.7084L13.8799 75.5732L13.2581 74.5738L13.2137 74.5961Z" fill="black"/>
<path id="Vector_22" d="M23.0295 82.4132C22.4965 82.8796 21.9636 83.1683 21.4306 83.3015C20.8976 83.4348 20.3646 83.4126 19.876 83.2571C19.3874 83.1017 18.9433 82.7907 18.588 82.3688C18.2104 81.9469 17.9884 81.4805 17.8995 80.9697C17.8107 80.4589 17.8551 79.9481 18.055 79.4152C18.2549 78.9044 18.6324 78.4158 19.1432 77.9494C19.6762 77.4831 20.2091 77.1944 20.7421 77.0611C21.2751 76.9279 21.8081 76.9501 22.2967 77.1055C22.7853 77.261 23.2294 77.5719 23.5847 77.9939C23.9623 78.4158 24.1843 78.8822 24.2954 79.3929C24.3842 79.9037 24.3398 80.4145 24.1399 80.9475C23.9401 81.4805 23.5625 81.9691 23.0517 82.4132H23.0295ZM22.2523 81.5249C22.6298 81.214 22.8741 80.8809 23.0295 80.5255C23.185 80.1924 23.2294 79.8593 23.185 79.5484C23.1406 79.2375 23.0073 78.9488 22.763 78.6823C22.541 78.4158 22.2745 78.2381 21.9636 78.1493C21.6527 78.0605 21.3195 78.0605 20.9642 78.1715C20.6089 78.2826 20.2536 78.4824 19.876 78.8155C19.4985 79.1265 19.232 79.4596 19.0987 79.7927C18.9433 80.1258 18.8989 80.4589 18.9433 80.7698C18.9877 81.0807 19.121 81.3694 19.3652 81.6359C19.5873 81.9024 19.8538 82.0801 20.1647 82.1689C20.4756 82.2578 20.8088 82.2578 21.1641 82.1467C21.5194 82.0357 21.8747 81.8358 22.2523 81.5027V81.5249Z" fill="black"/>
<path id="Vector_23" d="M22.0968 85.8998L26.2053 80.9031L28.0707 82.4354C28.4483 82.7463 28.7147 83.0794 28.8702 83.4348C29.0257 83.7901 29.0701 84.1232 29.0035 84.4785C28.9368 84.8339 28.7814 85.167 28.5149 85.4779C28.2484 85.7888 27.9597 86.0109 27.6266 86.1441C27.2934 86.2774 26.9603 86.2774 26.5828 86.1885C26.2053 86.0997 25.8499 85.8998 25.4502 85.5889L24.1177 84.4785L24.7395 83.7235L25.9388 84.7228C26.1608 84.9005 26.3607 85.0337 26.5606 85.0782C26.7605 85.1448 26.9381 85.1226 27.1158 85.0782C27.2934 85.0115 27.4489 84.9005 27.5821 84.7228C27.7154 84.5452 27.8264 84.3675 27.8486 84.1676C27.8931 83.99 27.8486 83.7901 27.7598 83.6124C27.671 83.4348 27.5155 83.2349 27.2934 83.0572L26.4718 82.3688L22.9851 86.6105L22.0746 85.8776L22.0968 85.8998ZM26.5384 85.7666L25.9166 89.0534L24.9172 88.2317L25.5612 84.9671L26.5384 85.7888V85.7666Z" fill="black"/>
<path id="Vector_24" d="M29.8473 85.1449L30.3581 84.301L34.7775 86.9438L34.2889 87.7877L32.5789 86.7661L29.7807 91.4742L28.7814 90.8745L31.5796 86.1665L29.8696 85.1449H29.8473Z" fill="black"/>
<path id="Vector_25" d="M40.9735 91.474C40.9735 91.2963 40.9735 91.1187 40.9069 90.9632C40.8624 90.8077 40.7958 90.6523 40.707 90.5413C40.6182 90.408 40.5071 90.297 40.3517 90.1859C40.2184 90.0971 40.0408 90.0083 39.8631 89.9416C39.53 89.8306 39.2191 89.8306 38.9082 89.8972C38.5972 89.9861 38.3085 90.1637 38.0643 90.4302C37.82 90.6967 37.6201 91.0742 37.4646 91.5406C37.3092 92.007 37.2648 92.4289 37.3092 92.7842C37.3536 93.1618 37.4868 93.4727 37.6867 93.717C37.8866 93.9613 38.1753 94.1389 38.5084 94.25C38.8193 94.3388 39.108 94.3832 39.3745 94.3388C39.641 94.2944 39.8853 94.1833 40.063 94.0057C40.2628 93.828 40.3961 93.5837 40.5071 93.295L40.7514 93.4283L39.0858 92.8953L39.3745 92.0292L41.8618 92.8287L41.6175 93.5615C41.4398 94.0945 41.1956 94.5165 40.8402 94.8274C40.4849 95.1383 40.0852 95.3381 39.6188 95.4048C39.1524 95.4936 38.6639 95.4492 38.1753 95.2715C37.6201 95.0939 37.1537 94.8052 36.7984 94.4054C36.4653 94.0057 36.2432 93.5393 36.1544 92.9841C36.0655 92.4289 36.1322 91.8293 36.332 91.1853C36.4875 90.6967 36.7096 90.2748 36.9761 89.9194C37.2426 89.5863 37.5535 89.2976 37.8866 89.12C38.2197 88.9201 38.5972 88.809 38.9748 88.7868C39.3745 88.7424 39.752 88.7868 40.1518 88.9423C40.4849 89.0533 40.7958 89.2088 41.0623 89.4086C41.3288 89.6085 41.5287 89.8306 41.7063 90.0749C41.884 90.3414 41.995 90.6079 42.0617 90.8966C42.1283 91.1853 42.1283 91.4962 42.0617 91.8293L40.9291 91.474H40.9735Z" fill="black"/>
<path id="Vector_26" d="M42.8167 96.4486L43.7717 90.0527L46.1701 90.4081C46.6587 90.4747 47.0584 90.6301 47.3693 90.8522C47.6803 91.0743 47.9023 91.3408 48.0134 91.6739C48.1244 92.007 48.1688 92.3846 48.1022 92.7843C48.0356 93.2062 47.9023 93.5394 47.6802 93.8059C47.4582 94.0724 47.1695 94.2722 46.8141 94.3833C46.4588 94.4943 46.0369 94.5165 45.5261 94.4499L43.8161 94.1834L43.9493 93.2285L45.5039 93.4505C45.7926 93.495 46.0369 93.495 46.2367 93.4505C46.4366 93.4061 46.5921 93.2951 46.7031 93.1618C46.8141 93.0286 46.8808 92.8287 46.9252 92.6066C46.9696 92.3846 46.9252 92.1847 46.8808 92.007C46.8141 91.8294 46.7031 91.6961 46.5254 91.5851C46.3478 91.474 46.1257 91.4074 45.837 91.363L44.771 91.2075L43.9493 96.6263L42.7945 96.4486H42.8167ZM46.5476 94.0501L47.7025 97.1815L46.4144 96.9816L45.304 93.8503L46.5699 94.0279L46.5476 94.0501Z" fill="black"/>
<path id="Vector_27" d="M49.2792 97.2481V90.7856H53.4987V91.7628H50.4562V93.5172H53.2544V94.4944H50.434V96.2488H53.4765V97.2259H49.2348L49.2792 97.2481Z" fill="black"/>
<path id="Vector_28" d="M55.4752 97.1371L54.5869 90.7412L58.7398 90.1638L58.873 91.141L55.8749 91.5629L56.1192 93.2951L58.8952 92.9176L59.0285 93.8947L56.2525 94.2723L56.4968 96.0267L59.517 95.6047L59.6503 96.5819L55.453 97.1593L55.4752 97.1371Z" fill="black"/>
<path id="Vector_29" d="M64.9135 88.4094L66.8012 94.5832L65.8019 94.8941L61.6046 91.5629H61.5602L62.8482 95.7824L61.7378 96.1155L59.8502 89.9418L60.8495 89.6309L65.0468 92.962H65.0912L63.8031 88.7425L64.9135 88.4094Z" fill="black"/>
<path id="Vector_30" d="M70.9763 92.7176L67.8228 87.0768L71.4426 85.0559L71.909 85.922L69.3107 87.3655L70.1546 88.8979L72.5086 87.5876L72.975 88.4537L70.621 89.764L71.9534 92.1624L70.9319 92.7398L70.9763 92.7176Z" fill="black"/>
<path id="Vector_31" d="M76.0841 89.7197L75.0847 90.4748L73.0416 83.9235L74.1964 83.0574L79.8816 86.8771L78.8823 87.6322L74.4407 84.5453H74.3963L76.0841 89.7197ZM74.5962 87.6544L77.3277 85.6113L77.8829 86.3663L75.1514 88.4095L74.5962 87.6544Z" fill="black"/>
<path id="Vector_32" d="M80.1925 79.9483C79.9705 79.7706 79.7262 79.7262 79.4819 79.7706C79.2376 79.815 78.9711 79.9705 78.7268 80.2148C78.5492 80.3924 78.4381 80.5701 78.3715 80.7478C78.3049 80.9254 78.2827 81.0809 78.3049 81.2363C78.3271 81.3918 78.3937 81.525 78.5047 81.6361C78.5936 81.7249 78.7046 81.7915 78.8157 81.8137C78.9267 81.8359 79.0599 81.8359 79.171 81.8137C79.3042 81.7915 79.4153 81.7471 79.5485 81.6805C79.6818 81.6139 79.7928 81.5472 79.9038 81.4806L80.4368 81.1475C80.6589 81.0143 80.8588 80.9032 81.1031 80.7922C81.3251 80.7033 81.5694 80.6367 81.7915 80.6145C82.0136 80.5923 82.2579 80.6145 82.4799 80.6811C82.702 80.7478 82.9241 80.881 83.124 81.0809C83.3905 81.3474 83.5681 81.6361 83.6347 81.9914C83.7014 82.3245 83.6792 82.6798 83.5237 83.0574C83.3905 83.4349 83.124 83.7902 82.7686 84.1678C82.4133 84.5231 82.058 84.7896 81.6805 84.945C81.3029 85.1005 80.9476 85.1449 80.5923 85.0783C80.237 85.0117 79.9038 84.8562 79.5707 84.5675L80.3702 83.7458C80.5479 83.9013 80.7255 83.9679 80.9254 83.9901C81.1253 83.9901 81.3029 83.9901 81.5028 83.8791C81.7027 83.7902 81.8803 83.657 82.0358 83.4793C82.2134 83.3017 82.3467 83.1018 82.4133 82.9241C82.5022 82.7465 82.5244 82.5466 82.5022 82.3689C82.5022 82.1913 82.4133 82.0358 82.2801 81.9026C82.169 81.7915 82.0136 81.7249 81.8803 81.7249C81.7249 81.7249 81.5694 81.7471 81.3918 81.8137C81.2141 81.8804 81.0364 81.9914 80.8144 82.1024L80.1703 82.5022C79.704 82.7909 79.2598 82.9463 78.8379 82.9685C78.4159 82.9907 78.0606 82.8353 77.7275 82.5244C77.461 82.2579 77.2833 81.947 77.2389 81.6139C77.1723 81.2585 77.2389 80.9032 77.3499 80.5479C77.4832 80.1704 77.7053 79.8372 78.0162 79.5041C78.3271 79.171 78.6824 78.9489 79.0377 78.8157C79.3931 78.6824 79.7484 78.638 80.0815 78.6824C80.4146 78.7268 80.7255 78.8823 80.992 79.1488L80.2147 79.9483H80.1925Z" fill="black"/>
<path id="Vector_33" d="M85.6557 80.881L80.3702 77.1723L81.0364 76.2174L83.2794 77.7941L84.9894 75.3513L82.7464 73.7745L83.4127 72.8196L88.6981 76.5283L88.0319 77.4832L85.7889 75.9065L84.0789 78.3493L86.3219 79.9261L85.6557 80.881Z" fill="black"/>
<path id="Vector_34" d="M84.4564 70.7542L90.1416 73.8188L89.5865 74.8404L83.9012 71.7757L84.4564 70.7542Z" fill="black"/>
<path id="Vector_35" d="M90.1639 65.513C90.8079 65.7573 91.3187 66.0904 91.6962 66.5124C92.0737 66.9343 92.2958 67.4007 92.3846 67.9115C92.4735 68.4223 92.4069 68.933 92.207 69.466C92.0071 69.999 91.6962 70.421 91.2965 70.7319C90.8967 71.0428 90.4081 71.2427 89.8529 71.3093C89.2978 71.3759 88.6981 71.2871 88.0541 71.0206C87.4101 70.7763 86.8993 70.4432 86.5218 70.0212C86.1442 69.5993 85.9222 69.1329 85.8333 68.6221C85.7445 68.1113 85.8111 67.6006 86.011 67.0676C86.2109 66.5346 86.5218 66.1126 86.9215 65.8017C87.3213 65.4686 87.8098 65.2909 88.365 65.2243C88.9202 65.1577 89.5198 65.2465 90.1639 65.513ZM89.7419 66.6012C89.2755 66.4235 88.8758 66.3569 88.4983 66.3569C88.1207 66.3569 87.8098 66.4902 87.5433 66.6678C87.2768 66.8455 87.0992 67.112 86.9659 67.4451C86.8327 67.7782 86.8105 68.0891 86.8771 68.4C86.9437 68.711 87.0992 68.9997 87.3657 69.2662C87.6322 69.5326 87.9875 69.7547 88.4316 69.9324C88.898 70.1101 89.2978 70.1989 89.6753 70.1767C90.0528 70.1767 90.3637 70.0434 90.608 69.8658C90.8745 69.6881 91.0522 69.4216 91.1854 69.0885C91.3187 68.7554 91.3409 68.4445 91.2742 68.1336C91.2076 67.8226 91.0522 67.5339 90.7857 67.2674C90.5192 67.001 90.1639 66.7789 89.7197 66.6012H89.7419Z" fill="black"/>
<path id="Vector_36" d="M88.4094 58.2068L94.7609 59.4504L94.561 60.472L89.6531 62.6262V62.6706L93.9614 63.5145L93.7393 64.6693L87.4101 63.4256L87.61 62.4041L92.5179 60.2721V60.2055L88.2096 59.3616L88.4317 58.2068H88.4094Z" fill="black"/>
</g>
<g id="100VlN.tif">
<path id="Vector_37" d="M71.8424 51.811V55.231C71.6647 55.764 71.4426 56.2969 70.9097 56.5634C70.5099 56.7633 70.4655 57.0298 70.4655 57.4073C70.4655 61.2715 70.4655 65.1579 70.4655 69.022C70.4655 70.4211 69.666 71.4205 68.3113 71.7758C68.2669 71.7758 68.2225 71.8202 68.1781 71.8424H34.7997C34.7997 71.8424 34.7109 71.798 34.6664 71.7758C33.2896 71.4205 32.5123 70.4211 32.5123 69.022C32.5123 65.069 32.5123 61.1383 32.5123 57.1853C32.5123 56.941 32.4679 56.7855 32.2236 56.6523C31.5351 56.2747 31.1798 55.6529 31.1576 54.8756C31.1576 54.0539 31.1576 53.2323 31.1576 52.4106C31.1576 50.9671 31.9793 50.1454 33.4228 50.1454C36.1544 50.1454 38.8859 50.1454 41.5953 50.1454C41.9284 50.1454 42.0172 50.0565 42.0172 49.7234C42.0172 48.1911 42.0172 46.6809 42.0172 45.1486C42.0172 44.8155 41.9506 44.6822 41.5731 44.7044C40.5071 44.7266 39.4633 44.7044 38.3974 44.7044C37.3092 44.7044 36.5985 44.1492 36.2876 43.1277C36.0211 42.195 35.7546 41.24 35.4881 40.3073C35.2661 39.5078 35.4215 38.8194 35.9989 38.2197C37.7311 36.4431 39.4855 34.6887 41.2178 32.9343C41.5287 32.6234 41.9062 32.4457 42.3282 32.3569C44.238 31.9793 46.1701 31.6018 48.08 31.2021C48.5464 31.1132 48.9683 31.1577 49.3903 31.3575C50.7893 32.0016 52.2106 32.0016 53.6097 31.3575C54.0095 31.1577 54.4314 31.1132 54.8756 31.2021C56.7855 31.5796 58.6953 31.9571 60.583 32.3347C61.0272 32.4235 61.4047 32.579 61.7378 32.9121C63.47 34.6665 65.2244 36.4209 66.9567 38.1975C67.5341 38.7972 67.7117 39.5078 67.4896 40.3073C67.2232 41.2178 66.9789 42.1283 66.7124 43.0611C66.4015 44.1715 65.6686 44.7044 64.536 44.7044C63.47 44.7044 62.4263 44.7044 61.3603 44.7044C61.0494 44.7044 60.9827 44.7933 60.9827 45.082C60.9827 46.6143 60.9827 48.1245 60.9827 49.6568C60.9827 50.0343 61.0494 50.1454 61.4491 50.1454C64.1585 50.1454 66.8678 50.1454 69.5994 50.1454C69.7993 50.1454 70.0213 50.1454 70.2212 50.1898C71.1095 50.3674 71.5759 50.9893 71.8424 51.811ZM51.5444 56.9188C45.7926 56.9188 40.063 56.9188 34.3111 56.9188C33.978 56.9188 33.867 56.9854 33.867 57.3407C33.867 61.1827 33.867 65.0246 33.867 68.8666C33.867 69.977 34.3777 70.4878 35.4881 70.4878C46.1479 70.4878 56.8299 70.4878 67.4896 70.4878C68.6 70.4878 69.1108 69.977 69.1108 68.8666C69.1108 65.0468 69.1108 61.2049 69.1108 57.3851C69.1108 56.9854 68.9998 56.9188 68.6222 56.9188C62.9148 56.9188 57.2074 56.9188 51.5 56.9188H51.5444ZM51.5 50.1454C54.0761 50.1454 56.6522 50.1454 59.2505 50.1454C59.5614 50.1454 59.6503 50.0787 59.6503 49.7456C59.6503 47.969 59.6503 46.1702 59.6503 44.3935C59.6503 44.1937 59.6059 43.9938 59.5837 43.8161C58.8508 40.4627 58.5621 37.1094 59.939 33.8448C60.0056 33.6894 59.9834 33.6005 59.8057 33.5783C58.4733 33.3118 57.163 33.0453 55.8305 32.7788C55.6529 32.7344 55.5862 32.7788 55.5862 32.9787C55.5862 33.0897 55.5862 33.2008 55.5862 33.2896C55.5418 35.3771 54.0095 37.0205 51.8775 37.2648C49.9677 37.4869 48.1022 36.1544 47.5914 34.2223C47.4804 33.8226 47.4582 33.4229 47.4804 33.0009C47.4804 32.801 47.4138 32.7566 47.2139 32.801C45.9258 33.0675 44.6156 33.3118 43.3275 33.5783C43.1498 33.6227 43.0388 33.6671 43.1276 33.8892C43.3053 34.289 43.4608 34.7109 43.5718 35.1107C44.2824 37.5091 44.127 39.9298 43.7939 42.3504C43.6828 43.0611 43.4163 43.7273 43.4163 44.4602C43.4163 46.2368 43.4163 48.0134 43.4163 49.79C43.4163 50.1232 43.5274 50.1898 43.8383 50.1898C46.4144 50.1898 48.9683 50.1898 51.5444 50.1898L51.5 50.1454ZM51.5 55.5641C57.4739 55.5641 63.47 55.5641 69.4439 55.5641C70.31 55.5641 70.4655 55.3864 70.4655 54.5203C70.4655 53.8097 70.4655 53.099 70.4655 52.3662C70.4655 51.7443 70.2212 51.5 69.5994 51.5C57.5183 51.5 45.4373 51.5 33.334 51.5C32.7344 51.5 32.4901 51.7443 32.4901 52.3439C32.4901 53.0768 32.4901 53.8319 32.4901 54.5647C32.4901 55.3864 32.6677 55.5641 33.4894 55.5641C39.4856 55.5641 45.4817 55.5641 51.4778 55.5641H51.5ZM40.1296 43.372C40.707 43.372 41.2844 43.372 41.884 43.372C42.1061 43.372 42.1949 43.3053 42.2393 43.0833C42.4614 42.0617 42.5946 41.0624 42.6613 40.0186C42.7723 38.1753 42.6613 36.3543 41.9728 34.5999C41.8618 34.3334 41.7952 34.3112 41.5953 34.5333C40.0852 36.0656 38.575 37.5979 37.0427 39.1303C36.7762 39.3968 36.7318 39.6855 36.8206 40.0408C37.0871 40.9291 37.3314 41.8396 37.5979 42.7502C37.7311 43.2387 37.931 43.3942 38.464 43.3942C39.0192 43.3942 39.5744 43.3942 40.1296 43.3942V43.372ZM62.8704 43.372C63.4256 43.372 63.9808 43.372 64.536 43.372C65.0912 43.372 65.2689 43.2387 65.4243 42.7057C65.6686 41.8396 65.9129 40.9513 66.1794 40.0852C66.3126 39.6633 66.2238 39.3524 65.9129 39.0414C64.4916 37.6201 63.0703 36.1766 61.649 34.7331C61.3381 34.4222 61.1086 34.474 60.9605 34.8886C59.9834 37.6201 60.2721 40.3739 60.8051 43.1499C60.8495 43.372 60.9605 43.3942 61.1382 43.3942C61.7156 43.3942 62.293 43.3942 62.8926 43.3942L62.8704 43.372ZM54.1871 32.6234C52.3883 33.4229 50.5895 33.4229 48.8128 32.6234C48.7018 33.8226 49.0127 34.822 50.0343 35.466C50.967 36.0656 51.9442 36.0878 52.8769 35.5104C53.9429 34.8664 54.2982 33.867 54.1871 32.6012V32.6234Z" fill="black"/>
</g>
<g id="FUFRSd.tif">
<g id="Group_4">
<path id="Vector_38" d="M52.144 59.2061C52.144 59.2061 52.2995 59.2505 52.3661 59.2505C52.7436 59.3615 53.0545 59.5836 53.2544 59.9167C53.4987 60.3164 53.743 60.7384 53.9873 61.1381C54.0317 61.2048 54.0539 61.227 54.1427 61.1826C54.3648 61.0493 54.5869 60.9161 54.8312 60.7606C54.7646 61.0715 54.6979 61.338 54.6313 61.6267C54.5425 61.9598 54.4758 62.2929 54.387 62.6261C54.387 62.6927 54.3648 62.7149 54.276 62.6927C53.6764 62.5372 53.0768 62.404 52.4771 62.2485C52.4771 62.2485 52.4549 62.2485 52.4105 62.2485C52.6326 62.1153 52.8325 61.982 53.0545 61.8488C53.1434 61.7896 53.1582 61.7229 53.099 61.6489C52.8769 61.2492 52.6326 60.8716 52.4105 60.4719C52.2995 60.272 52.1218 60.161 51.8997 60.161C51.5888 60.161 51.3001 60.161 50.9892 60.161C50.7671 60.161 50.6117 60.2498 50.4784 60.4497C50.2564 60.8494 50.0121 61.2492 49.79 61.6267C49.7456 61.6933 49.7234 61.7155 49.6567 61.6711C49.4347 61.5379 49.2348 61.4046 49.0127 61.2936C48.9683 61.2714 48.9461 61.2492 48.9905 61.1826C49.257 60.7384 49.5013 60.2942 49.7678 59.8723C49.9899 59.517 50.323 59.3171 50.7227 59.2283C50.7449 59.2283 50.7893 59.2283 50.8116 59.2061C51.2557 59.2061 51.6777 59.2061 52.1218 59.2061H52.144Z" fill="black"/>
<path id="Vector_39" d="M46.9696 62.8038C47.2361 62.7372 47.4804 62.6927 47.7469 62.6261C48.1022 62.5373 48.4797 62.4707 48.8351 62.3818C48.9017 62.3818 48.9239 62.3818 48.9239 62.4485C49.0571 63.0703 49.1904 63.6699 49.3236 64.2917C49.2792 64.2917 49.257 64.2917 49.2348 64.2473C49.0349 64.114 48.8351 64.003 48.6352 63.8698C48.5908 63.8476 48.5686 63.8253 48.5241 63.8698C48.2799 64.2917 48.0356 64.6915 47.8135 65.1134C47.7247 65.2911 47.7469 65.4687 47.8357 65.6242C47.9467 65.8018 48.08 65.9795 48.191 66.1572C48.2799 66.2904 48.4131 66.2904 48.5686 66.2904C49.1682 66.2904 49.7678 66.2904 50.3674 66.2904C50.4784 66.2904 50.5006 66.3126 50.5006 66.4237C50.5006 66.6679 50.5006 66.9122 50.5006 67.1565C50.5006 67.2231 50.4784 67.2454 50.4118 67.2454C49.79 67.2454 49.1682 67.2454 48.5464 67.2454C48.0356 67.2454 47.6358 67.0233 47.3471 66.6013C47.2361 66.4459 47.1251 66.2904 47.0362 66.135C46.7031 65.6464 46.7031 65.1356 46.9918 64.6248C47.2139 64.2251 47.4804 63.8253 47.7247 63.4256C47.7691 63.3368 47.7913 63.2924 47.6802 63.2479C47.436 63.1147 47.2139 62.9592 46.9696 62.7816V62.8038Z" fill="black"/>
<path id="Vector_40" d="M52.8991 68.2002C52.8991 68.2002 52.8325 68.1779 52.8103 68.1557C52.3883 67.7338 51.9664 67.3118 51.5222 66.8677C51.4778 66.8233 51.4556 66.8011 51.5222 66.7566C51.9664 66.3125 52.4327 65.8461 52.8769 65.402C52.9213 65.402 52.8991 65.4464 52.8991 65.4908C52.8991 65.7351 52.8991 66.0016 52.8991 66.2459C52.8991 66.3125 52.9213 66.3347 52.9879 66.3347C53.4543 66.3347 53.9207 66.3347 54.4092 66.3347C54.6091 66.3347 54.7868 66.2459 54.8978 66.0682C54.9866 65.935 55.0755 65.8239 55.1643 65.6907C55.2753 65.513 55.2975 65.3131 55.1643 65.1133C54.9422 64.7135 54.6979 64.336 54.4759 63.9363C54.4092 63.8252 54.4314 63.803 54.5425 63.7364C54.7423 63.6253 54.9422 63.5143 55.1421 63.3811C55.2087 63.3366 55.2309 63.3366 55.2753 63.4033C55.5196 63.8474 55.7861 64.2694 56.0304 64.7135C56.2969 65.2021 56.2747 65.6685 55.9638 66.1348C55.8527 66.2903 55.7417 66.4679 55.6307 66.6234C55.3197 67.0453 54.8978 67.2674 54.387 67.2674C53.9429 67.2674 53.4987 67.2674 53.0545 67.2674C52.9435 67.2674 52.8991 67.2674 52.9213 67.4007C52.9213 67.6672 52.9213 67.9337 52.9213 68.1779L52.8991 68.2002Z" fill="black"/>
</g>
</g>
</g>
</g>
</g>
<defs>
<clipPath id="clip0_1899_3327">
<rect width="103" height="103" fill="white"/>
</clipPath>
</defs>
</svg>
