<svg width="50" height="49" viewBox="0 0 50 49" fill="none" xmlns="http://www.w3.org/2000/svg">
<g id="Eco clothing 1" clip-path="url(#clip0_1899_3253)">
<g id="Layer 1">
<g id="3GqwwL.tif">
<g id="Group">
<path id="Vector" d="M50 31.4313V48.3238C49.6618 48.857 49.1805 49.013 48.5562 49C46.488 48.974 44.4199 49 42.3517 49C41.3242 49 40.999 48.6879 40.999 47.6606C40.999 43.2131 40.973 38.7787 41.012 34.3312C41.012 33.2909 40.8429 32.3416 40.4136 31.4053C40.0104 30.534 39.6332 29.6497 39.23 28.7784C39.191 28.6874 39.191 28.5053 38.9828 28.5183C38.9828 28.7004 38.9828 28.8824 38.9828 29.0515C38.9828 33.8631 38.9828 38.6876 38.9828 43.4992C38.9828 44.5916 38.6837 44.8907 37.5911 44.8907C29.1884 44.8907 20.7987 44.8907 12.3959 44.8907C11.3033 44.8907 10.9912 44.5916 10.9912 43.5122C10.9912 38.6746 10.9912 33.8501 10.9912 29.0125C10.9912 28.8434 10.9912 28.6744 10.9912 28.5053C10.8481 28.5053 10.8351 28.5833 10.8091 28.6354C10.2497 29.8057 9.72946 31.0021 9.24819 32.2115C9.06608 32.6927 8.97503 33.1738 8.97503 33.681C8.97503 38.3495 8.97503 43.018 8.97503 47.6866C8.97503 48.6489 8.63684 48.974 7.68731 48.974C5.55412 48.974 3.42092 48.974 1.28773 48.974C0.325189 48.974 -0.0130005 48.6359 -0.0130005 47.6866C-0.0130005 42.5239 -0.0130005 37.3742 -0.0130005 32.2115C-0.0130005 31.9384 -0.0130005 31.6523 0.0520359 31.3923C0.351203 29.7017 0.910517 28.0892 1.43081 26.4636C2.47139 23.1736 3.70708 19.9615 4.8127 16.7105C5.39803 14.9809 6.16546 13.3684 7.33612 11.9639C8.93601 10.0523 10.7961 8.49177 13.2935 7.85457C14.217 7.62049 15.1145 7.24337 16.025 6.97028C16.3762 6.86624 16.4282 6.71019 16.3632 6.37208C16.142 5.35775 15.8429 4.35642 15.4657 3.39411C15.3746 3.17304 15.3096 2.93896 15.1535 2.7439C14.5552 1.98965 14.8543 1.17038 15.8169 1.01433C17.4688 0.741242 19.1207 0.442144 20.7856 0.273089C21.6311 0.195064 22.4896 0.0910297 23.3351 0C24.4147 0 25.4813 0 26.5609 0C26.691 0.0260085 26.808 0.0650212 26.9381 0.0780255C28.9152 0.208068 30.8793 0.52017 32.8174 0.94931C33.91 1.19639 34.0921 1.49549 33.949 2.62686C33.7799 3.91428 33.6629 5.2147 33.4938 6.50212C33.4547 6.82723 33.5718 6.95727 33.871 7.0353C34.7034 7.26937 35.5229 7.52946 36.3294 7.81555C37.448 8.21868 38.6316 8.42675 39.6332 9.16799C42.2217 11.0926 44.1077 13.4854 45.1353 16.5934C46.0718 19.4283 47.1644 22.2113 48.1009 25.0462C48.8033 27.1529 49.4537 29.2726 50 31.4313ZM17.9371 4.25239C17.9631 4.42144 17.9631 4.48646 17.9761 4.55149C18.2492 5.44878 18.5354 6.35908 18.5744 7.30839C18.6004 7.98461 18.4053 8.28371 17.7549 8.50478C16.4022 8.95993 15.0364 9.40207 13.6707 9.83121C13.3065 9.93524 13.2284 10.0653 13.3195 10.4424C14.0089 13.1733 14.334 15.9432 14.243 18.7521C14.191 20.4687 13.9048 22.1462 13.1504 23.7197C13.0203 23.9928 12.9813 24.2789 12.9813 24.565C12.9813 30.508 12.9813 36.4379 12.9813 42.3808C12.9813 42.81 13.0983 42.914 13.5276 42.914C21.1759 42.901 28.8242 42.901 36.4724 42.914C36.9407 42.914 37.0187 42.758 37.0187 42.3418C37.0057 37.2832 36.9927 32.2245 37.0187 27.1659C37.0187 25.4233 37.0578 23.6937 36.4594 22.0162C36.4464 21.9772 36.4464 21.9252 36.4334 21.8731C35.705 18.1149 35.9131 14.3697 36.6805 10.6375C36.7586 10.2604 36.7326 10.0783 36.3163 9.93524C34.9506 9.5061 33.6108 8.99894 32.2451 8.59581C31.6727 8.42675 31.4256 8.11465 31.4386 7.52946C31.4386 7.0483 31.4776 6.55414 31.5167 6.07298C31.5817 5.44878 31.6727 4.82458 31.7638 4.12235C30.372 5.05865 28.9152 5.79989 28.3949 7.49045C28.3039 7.78954 28.1608 8.06263 28.0437 8.34873C27.0942 10.7935 26.5219 13.3424 26.0016 15.9172C25.8715 16.5414 25.5203 16.8535 24.987 16.8405C24.4797 16.8405 24.1415 16.5284 23.9984 15.9432C23.7123 14.6948 23.4521 13.4334 23.14 12.198C22.6587 10.2734 22.0734 8.38774 21.1629 6.60616C21.0068 6.29406 20.8767 5.92994 20.5515 5.74788C19.706 5.26672 18.8606 4.79857 17.924 4.2784L17.9371 4.25239ZM11.4334 10.9236C11.1993 11.1056 11.0042 11.2357 10.8351 11.3787C8.91 12.9262 7.57025 14.8639 6.7768 17.2176C5.41104 21.2229 3.90219 25.1892 2.70552 29.2596C2.40635 30.2739 2.02914 31.2752 2.01614 32.3416C1.99012 37.0751 2.01614 41.8087 2.00313 46.5422C2.00313 46.9323 2.14621 46.9973 2.4844 46.9843C3.82415 46.9713 5.15089 46.9583 6.49064 46.9843C6.91988 46.9843 7.03695 46.8803 7.03695 46.4512C7.02394 42.0947 7.03695 37.7253 7.02394 33.3689C7.02394 32.8097 7.10198 32.2765 7.29709 31.7434C8.27264 29.1425 9.58638 26.6847 10.7961 24.1879C11.2513 23.2516 11.7326 22.3413 11.9407 21.301C12.3829 19.1032 12.3049 16.9055 12.0708 14.6948C11.9407 13.4464 11.7456 12.224 11.4464 10.9106L11.4334 10.9236ZM48.0099 39.4029C48.0099 37.5693 47.9579 35.7227 48.0229 33.8891C48.0879 32.2895 47.7758 30.768 47.3205 29.2466C46.0328 24.9552 44.4849 20.7418 42.9891 16.5284C42.2086 14.3567 40.8039 12.6271 39.0089 11.2097C38.6837 10.9496 38.6186 11.0406 38.5666 11.4047C38.1244 14.0836 37.8902 16.7625 38.1244 19.4674C38.2804 21.366 38.6577 23.2126 39.5942 24.9291C40.5697 26.7237 41.4152 28.5963 42.2477 30.4559C42.781 31.6393 43.0541 32.8487 43.0411 34.1752C42.9891 38.2715 43.0281 42.3678 43.0151 46.4642C43.0151 46.8673 43.1192 46.9843 43.5224 46.9843C44.8621 46.9583 46.1889 46.9583 47.5286 46.9843C47.9319 46.9843 48.0489 46.8673 48.0359 46.4642C48.0229 44.1104 48.0359 41.7436 48.0359 39.3899L48.0099 39.4029ZM19.0167 2.54883C19.719 2.93896 20.2784 3.32909 20.9027 3.60218C21.9173 4.04432 22.5286 4.83758 23.0099 5.79989C23.8163 7.42543 24.3236 9.15499 24.8179 10.8846C24.8699 11.0536 24.8439 11.2617 25.052 11.3917C25.1041 11.1837 25.1561 11.0146 25.2081 10.8455C25.7414 8.95993 26.2227 7.0483 27.2373 5.33174C27.5755 4.74655 27.9917 4.25239 28.577 3.87527C29.2014 3.47213 29.7997 3.02999 30.4761 2.54883C26.6389 1.76858 22.8928 1.89862 19.0297 2.54883H19.0167Z" fill="black"/>
<path id="Vector_2" d="M28.642 39.0778C25.3512 37.9204 22.3595 36.4379 20.2914 33.577C19.0557 31.8604 18.4053 29.9618 18.9516 27.8421C19.3418 26.3336 20.2133 25.2152 21.8262 24.8641C21.9173 24.8381 22.0213 24.8381 22.1124 24.8251C22.7497 24.8121 22.7888 24.8641 22.7888 25.4883C22.7888 27.8941 23.218 30.2089 24.4017 32.3416C24.7269 32.9398 25.1301 33.4859 25.6894 33.9281C25.5723 33.603 25.4423 33.2779 25.3252 32.9398C24.4927 30.625 23.9854 28.2582 24.2066 25.7744C24.3757 23.9018 24.948 22.1853 26.1186 20.7028C26.4958 20.2346 26.9251 20.1826 27.3803 20.5337C27.7445 20.8198 27.7706 21.0929 27.4454 21.431C26.6649 22.2373 26.0016 23.1086 25.7284 24.2139C25.6634 24.487 25.5853 24.7731 25.5983 25.1112C26.0926 24.8381 26.5869 24.6431 27.1332 24.578C28.7591 24.37 30.0989 25.0982 30.7492 26.6197C31.4516 28.2712 31.3996 29.9748 30.9834 31.6914C30.6061 33.2519 29.9168 34.6823 29.2924 36.1518C28.9152 37.0621 28.486 37.9724 28.616 39.0908L28.642 39.0778Z" fill="black"/>
</g>
</g>
</g>
</g>
<defs>
<clipPath id="clip0_1899_3253">
<rect width="50" height="49" fill="white"/>
</clipPath>
</defs>
</svg>
