<svg width="60" height="49" viewBox="0 0 60 49" fill="none" xmlns="http://www.w3.org/2000/svg">
<g id="post 1" clip-path="url(#clip0_1899_3242)">
<g id="Layer 1">
<g id="2MaqSy.tif">
<g id="Group">
<path id="Vector" d="M30 48.9864C20.5112 48.9864 11.0224 48.9864 1.51985 48.9864C1.31447 48.9864 1.12277 48.9864 0.917386 48.9864C0.355999 48.9592 0.0273817 48.6463 0.0136894 48.1566C0.0136894 47.6533 0.314922 47.2996 0.862617 47.2587C1.46508 47.2179 2.06755 47.2315 2.67001 47.2587C3.06709 47.2724 3.25878 47.1771 3.24509 46.7282C3.21771 45.7215 3.2314 44.7285 3.24509 43.7218C3.24509 43.3273 3.10817 43.1913 2.71109 43.2049C2.1497 43.2321 1.58831 43.2185 1.01323 43.2049C0.287537 43.2049 -0.0136954 42.9056 -0.0136954 42.171C-0.0136954 39.1238 -0.0547725 36.0902 -0.0136954 33.043C0.0547665 28.6763 4.73756 26.0236 8.58512 28.1321C9.24235 28.4994 9.24235 28.4994 9.24235 27.7512C9.24235 24.636 9.24235 21.5072 9.24235 18.392C9.24235 17.8343 9.07804 17.6302 8.53035 17.6982C8.31127 17.7254 8.09219 17.7118 7.85942 17.6982C7.13373 17.6574 6.85988 17.3581 6.85988 16.6371C6.85988 15.5217 6.84619 14.3926 6.85988 13.2771C6.85988 12.8418 6.76403 12.6513 6.2848 12.6921C5.80557 12.7329 5.31264 12.6921 4.83341 12.6921C4.40894 12.6921 4.01186 12.6513 3.77909 12.2568C3.54632 11.8351 3.71063 11.4542 3.9434 11.0869C5.79187 8.10772 7.62665 5.11494 9.46143 2.13576C9.72159 1.71405 10.0228 1.30594 10.2419 0.857024C10.639 0.19045 11.1319 0 11.8713 0C16.7869 0.0272071 21.7024 0.0136036 26.618 0.0136036C35.0388 0.0136036 43.4596 0.0136036 51.8941 0C52.6335 0 53.0717 0.258468 53.4413 0.870627C55.4952 4.25791 57.5901 7.63159 59.6714 11.0053C59.9042 11.3862 60.1506 11.7671 59.9042 12.2296C59.644 12.7193 59.1648 12.7057 58.6855 12.7057C58.22 12.7057 57.7544 12.7193 57.2889 12.7057C56.9055 12.6785 56.8097 12.8418 56.8234 13.1954C56.8371 14.3381 56.8234 15.4808 56.8234 16.6235C56.8234 17.3989 56.5221 17.6982 55.728 17.7254C54.8608 17.7617 54.4272 18.2152 54.4272 19.0858C54.4272 28.2138 54.4272 37.3418 54.4272 46.4561C54.4272 46.9821 54.6874 47.2451 55.2077 47.2451C56.4537 47.2451 57.7134 47.2451 58.9594 47.2451C59.6166 47.2451 59.9726 47.558 59.9863 48.0886C60 48.6327 59.644 48.9728 59.0141 48.9728C57.2068 48.9728 55.3857 48.9728 53.5783 48.9728C45.7188 48.9728 37.8594 48.9728 30 48.9728V48.9864ZM52.702 32.4853C52.702 31.9275 52.702 31.3698 52.702 30.7984C52.702 26.6494 52.702 22.5139 52.702 18.3648C52.702 17.8479 52.565 17.671 52.0173 17.6846C51.0726 17.7254 50.1278 17.6846 49.183 17.6846C48.1698 17.6846 47.1702 17.6846 46.157 17.6846C45.4313 17.6846 45.0616 17.3309 45.1027 16.746C45.1301 16.2154 45.4724 15.957 46.1707 15.957C48.9366 15.957 51.6887 15.957 54.4546 15.957C54.9338 15.957 55.0981 15.8345 55.0707 15.3584C55.0297 14.6646 55.0434 13.9572 55.0707 13.2635C55.0844 12.8418 54.9886 12.6785 54.5094 12.6785C50.6207 12.6921 46.7321 12.6921 42.8434 12.6785C42.3642 12.6785 42.2821 12.8554 42.2957 13.2771C42.3094 14.9775 42.3094 16.678 42.2957 18.3784C42.2821 20.1605 41.0771 21.344 39.2834 21.344C34.3405 21.344 29.4112 21.344 24.4683 21.344C22.6198 21.344 21.4286 20.1877 21.456 18.3512C21.456 17.7934 21.2643 17.6982 20.7713 17.6982C17.7727 17.7254 14.7604 17.7254 11.7618 17.6982C11.1867 17.6982 11.0087 17.8343 11.0087 18.4192C11.0361 21.9833 11.0224 25.5475 11.0087 29.1116C11.0087 29.955 11.0087 30.7848 11.3373 31.5875C11.5016 31.982 11.5701 32.4445 11.5701 32.8798C11.5974 35.995 11.5974 39.1238 11.5837 42.239C11.5837 42.8784 11.2277 43.1913 10.5979 43.2049C9.99543 43.2049 9.39297 43.2185 8.7905 43.2049C8.44819 43.2049 8.32496 43.3273 8.33866 43.6538C8.35235 44.6197 8.37973 45.5719 8.33866 46.5378C8.31127 47.0819 8.46189 47.2451 9.03697 47.2451C17.9096 47.2315 26.7686 47.2315 35.6413 47.2451C36.2026 47.2451 36.3396 47.0819 36.3396 46.5378C36.3259 41.0691 36.3396 35.6141 36.3396 30.1455C36.3396 28.377 37.4623 27.2751 39.256 27.2751C41.7617 27.2751 44.2538 27.3431 46.7458 27.2479C48.5806 27.1799 49.9909 28.309 49.9498 30.4312C49.895 34.0089 49.9361 37.6002 49.9361 41.178C49.9361 43.0144 49.9361 44.8645 49.9361 46.701C49.9361 47.1227 50.0593 47.2724 50.4838 47.2451C50.9904 47.2179 51.497 47.1907 51.99 47.2451C52.6335 47.3268 52.7567 47.0547 52.7567 46.4697C52.7293 41.8037 52.7567 37.1377 52.7567 32.4853H52.702ZM6.31218 10.9509C6.53126 10.9509 6.73665 10.9509 6.95573 10.9509C10.4062 10.9509 13.843 10.9509 17.2935 10.9509C17.4989 10.9509 17.7042 10.9373 17.8959 10.9781C18.3615 11.0869 18.649 11.359 18.6216 11.8623C18.5942 12.3656 18.3067 12.6241 17.8275 12.6921C17.6495 12.7193 17.4715 12.6921 17.2798 12.6921C14.5961 12.6921 11.9261 12.6921 9.24235 12.6921C8.8042 12.6921 8.6262 12.7737 8.65358 13.2499C8.69466 13.9708 8.69466 14.6918 8.65358 15.4128C8.6262 15.8753 8.8042 15.9842 9.24235 15.9842C13.1036 15.9706 16.9785 15.9706 20.8398 15.9842C21.3464 15.9842 21.4423 15.8073 21.4286 15.3584C21.4012 13.4539 21.4149 11.563 21.4286 9.65852C21.4286 8.06691 22.6198 6.85619 24.2081 6.85619C29.3017 6.84259 34.4089 6.84259 39.5025 6.85619C40.9265 6.85619 41.9534 7.78123 42.2273 9.1824C42.2957 9.5633 42.3094 9.9442 42.2821 10.3115C42.241 10.8012 42.3779 10.9645 42.8982 10.9509C47.5673 10.9237 52.2501 10.9509 56.9192 10.9373C57.0835 10.9373 57.2752 11.0053 57.4532 10.8284C57.3984 10.7196 57.3574 10.6244 57.2889 10.5155C55.5637 7.71321 53.8384 4.92449 52.1269 2.12215C51.9078 1.75486 51.6203 1.74125 51.2643 1.74125C38.3113 1.74125 25.3583 1.74125 12.4053 1.74125C11.9671 1.74125 11.7207 1.87729 11.4879 2.24459C9.84482 4.95169 8.17435 7.6452 6.51757 10.3387C6.42172 10.5019 6.25741 10.6516 6.2848 10.9373L6.31218 10.9509ZM38.0785 38.362C38.0785 41.1235 38.0785 43.8851 38.0785 46.6466C38.0785 47.1091 38.188 47.2587 38.681 47.2587C41.6385 47.2315 44.6098 47.2451 47.5673 47.2587C48.0329 47.2587 48.1835 47.1499 48.1835 46.6602C48.1698 41.1916 48.1835 35.7365 48.1835 30.2679C48.1835 29.3565 47.8549 29.0436 46.9512 29.0436C44.4181 29.0436 41.8713 29.0436 39.3382 29.0436C38.4071 29.0436 38.1059 29.3293 38.1059 30.2543C38.1059 32.9614 38.1059 35.6549 38.1059 38.362H38.0785ZM9.83112 36.9881C9.83112 35.6821 9.83112 34.3898 9.83112 33.0838C9.83112 32.0772 9.46143 31.1929 8.77681 30.472C7.58557 29.2204 6.13418 28.8395 4.4774 29.3973C2.83432 29.9414 1.80739 31.3426 1.76631 33.1927C1.71154 35.791 1.76631 38.3892 1.73893 40.9875C1.73893 41.3412 1.84847 41.4772 2.23185 41.4772C4.61433 41.4636 6.98311 41.4772 9.36558 41.4772C9.73528 41.4772 9.85851 41.3684 9.84482 41.0011C9.83112 39.6544 9.84482 38.3212 9.84482 36.9745L9.83112 36.9881ZM24.7147 8.62465C24.7421 8.71988 24.7421 8.76069 24.7695 8.7879C27.0151 10.9645 29.1648 13.2363 31.5335 15.2904C31.8622 15.5761 32.0402 15.44 32.2866 15.2224C34.6143 13.2227 36.7093 10.9645 38.9274 8.84231C38.9822 8.7879 39.0507 8.73348 38.9822 8.61105H24.7284L24.7147 8.62465ZM38.5988 19.5619C38.5851 19.4803 38.5988 19.4395 38.5714 19.4123C37.1474 18.3376 35.7234 17.2493 34.2994 16.1746C34.094 16.025 33.9434 16.093 33.7654 16.2426C33.3546 16.5963 32.9439 16.95 32.5331 17.3037C32.0949 17.6574 31.6568 17.6574 31.2186 17.3037C30.8489 16.9908 30.4655 16.6916 30.1232 16.3651C29.8494 16.093 29.6303 16.0658 29.3017 16.3107C28.0283 17.2901 26.7275 18.2424 25.4404 19.2082C25.3309 19.2898 25.1392 19.3579 25.1666 19.5755H38.6125L38.5988 19.5619ZM40.4473 9.87618C40.4473 9.87618 40.3104 9.9442 40.2556 9.98501C38.6947 11.5086 37.1337 13.0458 35.5728 14.5694C35.2716 14.8551 35.4496 14.9911 35.6823 15.1544C37.1337 16.229 38.5714 17.3173 40.0228 18.392C40.1597 18.4872 40.2967 18.7049 40.4884 18.5825C40.6253 18.4872 40.5568 18.2832 40.5568 18.1335C40.5568 15.5353 40.5568 12.937 40.5568 10.3387C40.5568 10.1891 40.6116 10.0258 40.461 9.86258L40.4473 9.87618ZM23.2086 9.72654C23.2086 12.7329 23.2086 15.5489 23.2086 18.3512C23.2086 18.7729 23.414 18.6369 23.6057 18.4872C25.1118 17.3581 26.618 16.229 28.1378 15.1135C28.4254 14.9095 28.3706 14.7599 28.1378 14.5558C27.7955 14.2429 27.4806 13.9164 27.152 13.5899C25.8786 12.352 24.6052 11.1005 23.1949 9.72654H23.2086ZM6.58603 45.2318C6.58603 44.9189 6.58603 44.5924 6.58603 44.2796C6.58603 43.1505 6.58603 43.1641 5.43587 43.2185C5.09356 43.2185 4.98402 43.3545 4.98402 43.681C4.98402 44.4972 4.98402 45.3134 4.98402 46.1297C5.01141 47.3948 4.73756 47.2315 6.14787 47.2451C6.50388 47.2451 6.59972 47.1091 6.58603 46.7826C6.57234 46.2657 6.58603 45.7488 6.58603 45.2318Z" fill="black"/>
<path id="Vector_2" d="M23.3455 43.817C20.9219 43.817 18.5121 43.817 16.0885 43.817C15.2259 43.817 14.911 43.5178 14.911 42.6743C14.911 39.2735 14.911 35.8726 14.911 32.4717C14.911 31.6147 15.1985 31.329 16.0748 31.329C20.9083 31.329 25.7417 31.329 30.5751 31.329C31.4514 31.329 31.7115 31.5738 31.7115 32.4309C31.7115 35.859 31.7115 39.2735 31.7115 42.7015C31.7115 43.5586 31.424 43.8306 30.534 43.8306C28.1378 43.8306 25.7417 43.8306 23.3455 43.8306V43.817ZM16.6773 37.5322C16.6773 38.8653 16.6773 40.2121 16.6773 41.5452C16.6773 41.9261 16.7595 42.0758 17.1702 42.0622C18.7586 42.035 20.3469 42.035 21.9352 42.0622C22.4007 42.0622 22.524 41.8853 22.524 41.4636C22.524 38.8517 22.524 36.2263 22.524 33.6144C22.524 33.1927 22.3733 33.0158 21.9215 33.0158C20.3469 33.043 18.7859 33.0294 17.2113 33.0158C16.7869 33.0158 16.6636 33.1519 16.6636 33.5736C16.691 34.8931 16.6636 36.2127 16.6636 37.5322H16.6773ZM24.1533 37.5594C24.1533 38.8926 24.1533 40.2393 24.1533 41.5725C24.1533 41.9261 24.2492 42.0622 24.6326 42.0622C26.262 42.0486 27.8914 42.0486 29.5208 42.0622C29.9041 42.0622 30 41.9125 30 41.5725C30 38.8926 30 36.2127 30 33.5328C30 33.1383 29.8357 33.0158 29.466 33.0158C27.8914 33.0294 26.3304 33.043 24.7558 33.0158C24.2629 33.0158 24.1397 33.2063 24.1533 33.6552C24.1807 34.9611 24.1533 36.2535 24.1533 37.5594Z" fill="black"/>
<path id="Vector_3" d="M40.461 38.1036C40.461 37.8043 40.4336 37.505 40.461 37.2057C40.5021 36.7432 40.7896 36.4575 41.2551 36.4575C41.7344 36.4575 42.0493 36.7432 42.063 37.2465C42.0767 37.8451 42.0767 38.4436 42.063 39.0422C42.063 39.5183 41.7754 39.7904 41.3099 39.8176C40.817 39.8312 40.5157 39.5591 40.4747 39.0694C40.4473 38.7565 40.4747 38.43 40.4747 38.1172L40.461 38.1036Z" fill="black"/>
<path id="Vector_4" d="M5.76449 34.1994C5.29895 34.1994 4.83341 34.1994 4.36786 34.1994C3.87494 34.1994 3.56001 33.9681 3.53263 33.4512C3.50524 32.9478 3.79279 32.6077 4.32679 32.5941C5.29895 32.5669 6.25741 32.5669 7.22957 32.5941C7.73619 32.5941 8.0785 32.9886 8.05111 33.4512C8.01004 33.9545 7.69511 34.1858 7.20219 34.1994C6.72295 34.1994 6.23003 34.1994 5.75079 34.1994H5.76449Z" fill="black"/>
</g>
</g>
</g>
</g>
<defs>
<clipPath id="clip0_1899_3242">
<rect width="60" height="49" fill="white"/>
</clipPath>
</defs>
</svg>
