<svg width="31" height="50" viewBox="0 0 31 50" fill="none" xmlns="http://www.w3.org/2000/svg">
<g id="QR scan 1" clip-path="url(#clip0_1899_3210)">
<g id="Layer 1">
<g id="rEv5nQ.tif">
<g id="Group">
<path id="Vector" d="M27.6841 50H3.29524C3.29524 50 3.39853 49.9792 3.46051 49.9584C3.37787 49.9272 3.30556 49.9376 3.23326 49.9272C3.16095 49.9168 3.08864 49.9064 3.01633 49.896C1.97301 49.6464 1.15695 49.0537 0.588804 48.1385C0.289237 47.6602 0.0619793 47.1402 0.092969 46.5474C0.092969 46.5266 0.103299 46.5058 0.0723092 46.485C0.0309897 46.589 0.0516495 46.693 0 46.7866V3.29659C0.0413196 3.35899 0.0103299 3.45258 0.0619793 3.51498C0.0619793 3.39018 0.0619793 3.27579 0.0826391 3.1718C0.258247 2.22546 0.733422 1.46631 1.46684 0.863145C2.23126 0.249584 3.1093 0 4.05965 0C11.5282 0 18.9863 0 26.4548 0C26.7647 0 27.0746 0 27.3845 0.0207987C28.1696 0.0831947 28.8824 0.332779 29.4918 0.821547C30.5042 1.64309 31 2.73503 31 4.04534C31 18.0012 31 31.9676 31 45.9235C31 46.2562 30.9793 46.5786 30.907 46.901C30.6591 47.9409 30.1013 48.7729 29.2129 49.3552C28.7068 49.688 28.149 49.9168 27.5188 49.9272C27.5808 49.948 27.6428 49.9688 27.6944 49.9896L27.6841 50ZM1.54948 25C1.54948 30.678 1.54948 36.3561 1.54948 42.0237C1.54948 42.1346 1.60113 42.1901 1.70443 42.1901C10.898 42.1901 20.0916 42.1901 29.2956 42.1901C29.3989 42.1901 29.4505 42.1346 29.4505 42.0237C29.4505 30.678 29.4505 19.3324 29.4505 7.98669C29.4505 7.87576 29.3954 7.8203 29.2852 7.8203C20.0916 7.8203 10.898 7.8203 1.6941 7.8203C1.57014 7.8203 1.53915 7.8515 1.53915 7.97629C1.53915 13.6543 1.53915 19.3324 1.53915 25H1.54948ZM15.5052 43.75C10.898 43.75 6.30123 43.75 1.6941 43.75C1.58047 43.75 1.53915 43.7708 1.53915 43.8956C1.53915 44.6443 1.53915 45.3931 1.53915 46.1418C1.53915 46.849 1.83872 47.421 2.36554 47.8785C2.82006 48.2737 3.35721 48.4401 3.95635 48.4401C4.89637 48.4401 5.82606 48.4401 6.76608 48.4401C13.5528 48.4401 20.3292 48.4401 27.116 48.4401C27.4672 48.4401 27.7977 48.3777 28.118 48.2321C28.9857 47.8057 29.4299 47.0778 29.4505 46.1106C29.4712 45.3827 29.4505 44.6443 29.4505 43.9164C29.4505 43.7916 29.4195 43.7604 29.2956 43.7604C24.6988 43.7604 20.102 43.7604 15.5052 43.7604V43.75ZM15.5052 6.25C20.102 6.25 24.7091 6.25 29.3059 6.25C29.4402 6.25 29.4608 6.2084 29.4608 6.09401C29.4608 5.34526 29.4608 4.59651 29.4608 3.84775C29.4608 3.71256 29.4505 3.58777 29.4195 3.46298C29.1819 2.31905 28.2626 1.5703 27.1056 1.5703C19.4409 1.5703 11.7657 1.5703 4.10097 1.5703C3.94602 1.5703 3.79107 1.5703 3.64645 1.5911C2.40686 1.66389 1.53915 2.85982 1.55981 3.89975C1.58047 4.6381 1.55981 5.37646 1.55981 6.10441C1.55981 6.2292 1.5908 6.2604 1.71476 6.2604C6.31156 6.2604 10.9084 6.2604 15.5052 6.2604V6.25Z" fill="black"/>
<path id="Vector_2" d="M12.3959 12.5104C12.5198 12.5104 12.6334 12.5104 12.7574 12.5104C13.6354 12.5104 14.5135 12.5104 15.3812 12.5104C15.4742 12.5104 15.5052 12.4792 15.4948 12.3856C15.4948 11.9384 15.4948 11.5016 15.4948 11.0545C15.4948 10.9609 15.5155 10.9401 15.6085 10.9401C19.1516 10.9401 22.6948 10.9401 26.2379 10.9401C26.3309 10.9401 26.3515 10.9713 26.3515 11.0545C26.3515 13.0615 26.3515 15.0686 26.3515 17.0757C26.3515 17.1693 26.3309 17.2005 26.2379 17.2005C25.7937 17.2005 25.3599 17.2005 24.9157 17.2005C24.833 17.2005 24.8021 17.2109 24.8021 17.3149C24.8021 18.282 24.8021 19.2491 24.8021 20.2163C24.8021 20.3099 24.8227 20.3307 24.9157 20.3307C25.3599 20.3307 25.8041 20.3307 26.2482 20.3307C26.3309 20.3307 26.3619 20.3515 26.3619 20.4347C26.3619 21.9322 26.3619 23.4193 26.3619 24.9168C26.3619 25.0104 26.3309 25.0208 26.2482 25.0208C25.8041 25.0208 25.3599 25.0208 24.9157 25.0208C24.8227 25.0208 24.8021 25.0416 24.8021 25.1352C24.8021 25.5823 24.8021 26.0191 24.8021 26.4663C24.8021 26.5599 24.8227 26.5911 24.9157 26.5911C25.3599 26.5911 25.7937 26.5911 26.2379 26.5911C26.3205 26.5911 26.3515 26.6015 26.3515 26.7055C26.3515 28.1926 26.3515 29.6797 26.3515 31.1772C26.3515 31.2708 26.3309 31.2916 26.2379 31.2916C25.7627 31.2916 25.2772 31.2916 24.8021 31.2916C24.8021 31.0628 24.8021 30.8444 24.8021 30.6156C24.8021 30.5324 24.7814 30.5116 24.6988 30.5116C24.2546 30.5116 23.8001 30.5116 23.3559 30.5116C23.2732 30.5116 23.2422 30.4908 23.2422 30.4076C23.2422 29.9604 23.2422 29.5029 23.2422 29.0557C23.2422 28.9621 23.2732 28.9517 23.3559 28.9517C23.8001 28.9517 24.2442 28.9517 24.6884 28.9517C24.7814 28.9517 24.8021 28.9309 24.8021 28.8373C24.8021 28.6501 24.8021 28.4629 24.8021 28.2758C24.8021 28.1926 24.7814 28.1614 24.6988 28.1718C24.2546 28.1718 23.8104 28.1718 23.3662 28.1718C23.2836 28.1718 23.2526 28.1614 23.2526 28.0574C23.2526 26.5703 23.2526 25.0832 23.2526 23.5857C23.2526 23.4921 23.2732 23.4713 23.3662 23.4713C23.8104 23.4713 24.2546 23.4713 24.6988 23.4713C24.7814 23.4713 24.8124 23.4505 24.8124 23.3673C24.8124 22.9201 24.8124 22.4625 24.8124 22.0154C24.8124 21.9218 24.7814 21.9114 24.6988 21.9114C24.2546 21.9114 23.8207 21.9114 23.3765 21.9114C23.2732 21.9114 23.2526 21.8802 23.2526 21.7866C23.2526 20.3099 23.2526 18.8332 23.2526 17.3565C23.2526 17.2525 23.2319 17.2213 23.1183 17.2213C22.1679 17.2213 21.2176 17.2213 20.2776 17.2213C20.1639 17.2213 20.1433 17.1901 20.1433 17.0861C20.1433 16.1293 20.1433 15.1726 20.1433 14.2159C20.1433 14.1119 20.1226 14.0911 20.0193 14.0911C19.5441 14.0911 19.069 14.0911 18.5938 14.0911C18.5938 13.6127 18.5938 13.1239 18.5938 12.6456C18.5938 12.552 18.5731 12.5312 18.4802 12.5312C18.036 12.5312 17.5918 12.5312 17.1476 12.5312C17.0546 12.5312 17.034 12.5624 17.034 12.6456C17.034 13.1343 17.034 13.6127 17.034 14.1015C16.0423 14.1015 15.061 14.1015 14.0693 14.1015C13.9557 14.1015 13.9247 14.1327 13.935 14.2367C13.935 14.6734 13.935 15.1102 13.935 15.547C13.935 15.6406 13.9144 15.6718 13.8214 15.6718C13.3772 15.6718 12.9433 15.6718 12.4992 15.6718C12.3959 15.6718 12.3855 15.6406 12.3855 15.547C12.3855 14.5486 12.3855 13.5503 12.3855 12.5416L12.3959 12.5104ZM23.2422 15.6302C23.7277 15.6302 24.2133 15.6302 24.6988 15.6302C24.7917 15.6302 24.8124 15.599 24.8124 15.5158C24.8124 14.5486 24.8124 13.5815 24.8124 12.6144C24.8124 12.5312 24.7917 12.5 24.7091 12.5C23.7484 12.5 22.7774 12.5 21.8167 12.5C21.7341 12.5 21.7134 12.5208 21.7134 12.604C21.7134 13.5711 21.7134 14.5382 21.7134 15.5054C21.7134 15.6094 21.7547 15.6198 21.8374 15.6198C22.3126 15.6198 22.7774 15.6198 23.2526 15.6198L23.2422 15.6302Z" fill="black"/>
<path id="Vector_3" d="M18.6041 31.25C17.6125 31.25 16.6311 31.25 15.6395 31.25C15.5258 31.25 15.5052 31.2812 15.5052 31.3852C15.5052 31.822 15.5052 32.2587 15.5052 32.7059C15.5052 32.7891 15.4845 32.8203 15.4019 32.8203C11.8587 32.8203 8.30523 32.8203 4.76208 32.8203C4.67944 32.8203 4.65878 32.7891 4.65878 32.7059C4.65878 30.1789 4.65878 27.6414 4.65878 25.1144C4.65878 25.0208 4.67944 25 4.77241 25C5.24759 25 5.73309 25 6.20827 25C6.20827 25.4784 6.20827 25.9567 6.20827 26.4351C6.20827 26.5391 6.23926 26.5599 6.33223 26.5599C7.78874 26.5599 9.25558 26.5599 10.7121 26.5599C10.8257 26.5599 10.8567 26.5807 10.8567 26.7055C10.8567 28.1822 10.8567 29.6485 10.8567 31.1252C10.8567 31.2396 10.8877 31.2604 10.991 31.2604C11.1769 31.2604 11.3526 31.2604 11.5385 31.2604C11.6211 31.2604 11.6418 31.2396 11.6418 31.1564C11.6418 30.7092 11.6418 30.2621 11.6418 29.8149C11.6418 29.7213 11.6624 29.6901 11.7554 29.6901C12.1996 29.6901 12.6335 29.6901 13.0776 29.6901C13.1809 29.6901 13.1913 29.7213 13.1913 29.8149C13.1913 30.2621 13.1913 30.6988 13.1913 31.146C13.1913 31.2396 13.2119 31.2604 13.3049 31.2604C13.4908 31.2604 13.6768 31.2604 13.8627 31.2604C13.966 31.2604 13.9763 31.2292 13.9763 31.146C13.9763 30.7092 13.9763 30.2621 13.9763 29.8253C13.9763 29.7109 14.0073 29.6901 14.1106 29.6901C15.5775 29.6901 17.0443 29.6901 18.5008 29.6901C18.6041 29.6901 18.6248 29.7109 18.6248 29.8149C18.6248 30.2933 18.6248 30.7716 18.6248 31.25H18.6041ZM7.73709 31.25C8.22259 31.25 8.7081 31.25 9.1936 31.25C9.28657 31.25 9.30723 31.2188 9.30723 31.1356C9.30723 30.1685 9.30723 29.2013 9.30723 28.2342C9.30723 28.151 9.28657 28.1198 9.20393 28.1198C8.24325 28.1198 7.27225 28.1198 6.31157 28.1198C6.22893 28.1198 6.20827 28.151 6.20827 28.2342C6.20827 29.2013 6.20827 30.1685 6.20827 31.1356C6.20827 31.2292 6.22893 31.25 6.32189 31.25C6.79707 31.25 7.27224 31.25 7.74742 31.25H7.73709Z" fill="black"/>
<path id="Vector_4" d="M6.19792 25C6.19792 24.0017 6.19792 23.0033 6.19792 22.0154C6.19792 21.9114 6.17726 21.8698 6.06363 21.8698C5.64011 21.8698 5.20625 21.8698 4.78273 21.8698C4.67943 21.8698 4.64844 21.8594 4.64844 21.745C4.64844 18.178 4.64844 14.6215 4.64844 11.0545C4.64844 10.9609 4.6691 10.9297 4.76207 10.9297C7.27223 10.9297 9.77206 10.9297 12.2822 10.9297C12.3752 10.9297 12.4062 10.9505 12.4062 11.0441C12.4062 11.5328 12.4062 12.0112 12.4062 12.5C11.9207 12.5 11.4248 12.5 10.9393 12.5C10.8464 12.5 10.8567 12.552 10.8567 12.604C10.8567 13.0512 10.8567 13.4983 10.8567 13.9455C10.8567 14.9854 10.8567 16.0254 10.8567 17.0549C10.8567 17.1693 10.8257 17.1901 10.7224 17.1901C9.2659 17.1901 7.79905 17.1901 6.34254 17.1901C6.22891 17.1901 6.20825 17.2213 6.20825 17.3253C6.20825 18.282 6.20825 19.2388 6.20825 20.1955C6.20825 20.2891 6.22891 20.3203 6.32188 20.3203C6.76606 20.3203 7.19992 20.3203 7.64411 20.3203C7.72674 20.3203 7.75773 20.3307 7.75773 20.4347C7.75773 21.9218 7.75773 23.4089 7.75773 24.9064C7.75773 25 7.73707 25.0208 7.64411 25.0208C7.16893 25.0208 6.68343 25.0208 6.20825 25.0208L6.19792 25ZM7.7474 15.6198C8.22258 15.6198 8.69775 15.6198 9.17293 15.6198C9.25557 15.6198 9.29689 15.6094 9.29689 15.5054C9.29689 14.5383 9.29689 13.5711 9.29689 12.604C9.29689 12.5208 9.27623 12.4896 9.19359 12.4896C8.23291 12.4896 7.2619 12.4896 6.30122 12.4896C6.21858 12.4896 6.19792 12.5208 6.19792 12.604C6.19792 13.5711 6.19792 14.5383 6.19792 15.5054C6.19792 15.599 6.21858 15.6198 6.31155 15.6198C6.78673 15.6198 7.27223 15.6198 7.7474 15.6198Z" fill="black"/>
<path id="Vector_5" d="M17.8191 22.6601C16.3109 22.6601 14.8027 22.6601 13.3049 22.6601C13.1913 22.6601 13.1706 22.6289 13.1706 22.5249C13.1706 22.0881 13.1706 21.6514 13.1706 21.2146C13.1706 21.1106 13.1913 21.0898 13.2946 21.0898C14.7511 21.0898 16.2179 21.0898 17.6744 21.0898C17.7881 21.0898 17.8191 21.069 17.8191 20.9442C17.8191 19.9875 17.8191 19.0411 17.8191 18.0844C17.8191 17.9908 17.8087 17.9492 17.6951 17.9492C16.9927 17.9492 16.3006 17.9492 15.5981 17.9492C15.5052 17.9492 15.4845 17.97 15.4845 18.0636C15.4845 18.5108 15.4845 18.9579 15.4845 19.4051C15.4845 19.4883 15.4638 19.5195 15.3812 19.5195C13.6458 19.5195 11.9 19.5195 10.1646 19.5195C10.0716 19.5195 10.0613 19.4883 10.0613 19.4051C10.0613 18.9579 10.0613 18.5108 10.0613 18.0636C10.0613 17.97 10.0923 17.9492 10.1749 17.9492C11.3835 17.9492 12.5921 17.9492 13.8007 17.9492C13.9144 17.9492 13.9453 17.918 13.9453 17.8036C13.9453 17.3668 13.9453 16.9197 13.9453 16.4829C13.9453 16.4101 13.966 16.3789 14.0486 16.3789C15.7944 16.3789 17.5402 16.3789 19.2756 16.3789C19.3892 16.3789 19.3685 16.4413 19.3685 16.5037C19.3685 17.9804 19.3685 19.4467 19.3685 20.9234C19.3685 21.0378 19.3995 21.069 19.5132 21.069C20.4532 21.069 21.4035 21.069 22.3435 21.069C22.4468 21.069 22.4675 21.0898 22.4675 21.1938C22.4675 21.6306 22.4675 22.0777 22.4675 22.5145C22.4675 22.6185 22.4365 22.6393 22.3332 22.6393C20.8251 22.6393 19.3169 22.6393 17.8087 22.6393L17.8191 22.6601Z" fill="black"/>
<path id="Vector_6" d="M15.5052 23.4401C17.5195 23.4401 19.5442 23.4401 21.5585 23.4401C21.6721 23.4401 21.7031 23.4609 21.7031 23.5857C21.7031 25.052 21.7031 26.5183 21.7031 27.995C21.7031 28.1198 21.6721 28.1406 21.5585 28.1406C19.3272 28.1406 17.096 28.1406 14.8647 28.1406C14.7614 28.1406 14.7201 28.1198 14.7304 28.0054C14.7304 27.579 14.7304 27.1422 14.7304 26.7159C14.7304 26.6015 14.7717 26.5807 14.875 26.5807C16.5898 26.5807 18.3046 26.5807 20.0193 26.5807C20.133 26.5807 20.164 26.5495 20.164 26.4351C20.164 26.0087 20.164 25.5823 20.164 25.156C20.164 25.052 20.1433 25.0104 20.0297 25.0104C18.8521 25.0104 17.6848 25.0104 16.5072 25.0104C14.152 25.0104 11.7967 25.0104 9.45185 25.0104C9.33823 25.0104 9.30724 24.9792 9.31757 24.8752C9.31757 24.4488 9.31757 24.0224 9.31757 23.5961C9.31757 23.4817 9.33823 23.4505 9.46219 23.4505C11.4868 23.4505 13.5012 23.4505 15.5258 23.4505L15.5052 23.4401Z" fill="black"/>
<path id="Vector_7" d="M19.3685 39.0599C17.85 39.0599 16.3212 39.0599 14.8027 39.0599C14.3585 39.0599 14.0693 38.8415 13.966 38.4256C13.8834 38.0824 14.09 37.6872 14.4205 37.5624C14.5548 37.5104 14.6994 37.4896 14.844 37.4896C17.8914 37.4896 20.9284 37.4896 23.9757 37.4896C24.4612 37.4896 24.8124 37.8328 24.8021 38.3008C24.8021 38.7271 24.4508 39.0495 23.9757 39.0495C23.4695 39.0495 22.9633 39.0495 22.4468 39.0495C21.4139 39.0495 20.3912 39.0495 19.3582 39.0495L19.3685 39.0599Z" fill="black"/>
<path id="Vector_8" d="M11.6211 35.9401C10.1026 35.9401 8.57382 35.9401 7.05532 35.9401C6.61114 35.9401 6.31157 35.7218 6.2186 35.3162C6.13596 34.973 6.34256 34.5778 6.67312 34.453C6.8074 34.401 6.95202 34.3802 7.09664 34.3802C10.144 34.3802 13.1809 34.3802 16.2283 34.3802C16.7241 34.3802 17.065 34.713 17.0547 35.1914C17.0547 35.6178 16.7034 35.9401 16.2386 35.9505C15.9287 35.9505 15.6291 35.9505 15.3192 35.9505C14.09 35.9505 12.8607 35.9505 11.6211 35.9505V35.9401Z" fill="black"/>
<path id="Vector_9" d="M11.5178 39.0599C11.3112 39.0495 11.0117 39.0911 10.7121 39.0391C10.3402 38.9767 10.0717 38.6751 10.0717 38.3111C10.0717 37.9056 10.3092 37.604 10.6914 37.5312C10.7741 37.5104 10.8671 37.5 10.96 37.5C11.4249 37.5 11.9 37.5 12.3649 37.5C12.7368 37.5 13.0157 37.6976 13.1293 38.0408C13.2843 38.4775 13.0053 38.9663 12.5508 39.0391C12.4992 39.0391 12.4579 39.0599 12.4062 39.0599C12.1376 39.0599 11.8691 39.0599 11.5178 39.0599Z" fill="black"/>
<path id="Vector_10" d="M7.73709 39.0599C7.43752 39.0391 7.13796 39.0807 6.83839 39.0391C6.46651 38.9767 6.19794 38.6751 6.19794 38.3111C6.19794 37.9056 6.43552 37.604 6.81773 37.5312C6.90037 37.5104 6.99334 37.5 7.08631 37.5C7.55115 37.5 8.02633 37.5 8.49117 37.5C8.87338 37.5 9.14196 37.6976 9.26591 38.0304C9.42086 38.4671 9.14196 38.9559 8.68744 39.0287C8.37754 39.0807 8.05732 39.0287 7.74742 39.0599H7.73709Z" fill="black"/>
<path id="Vector_11" d="M23.1906 35.9401C22.953 35.9297 22.6534 35.9713 22.3539 35.9194C21.9717 35.857 21.7031 35.545 21.7031 35.1602C21.7031 34.765 21.9613 34.4634 22.3539 34.401C22.4675 34.3802 22.5811 34.3802 22.7051 34.3802C23.1389 34.3802 23.5728 34.3802 23.9963 34.3802C24.4715 34.3802 24.8124 34.7338 24.8021 35.1914C24.8021 35.6074 24.4508 35.9297 23.9963 35.9401C23.7484 35.9401 23.5005 35.9401 23.1803 35.9401H23.1906Z" fill="black"/>
<path id="Vector_12" d="M19.3066 35.9401C19.069 35.9297 18.7694 35.9713 18.4698 35.9194C18.0876 35.857 17.8191 35.545 17.8191 35.1602C17.8191 34.765 18.0773 34.4634 18.4698 34.401C18.5938 34.3802 18.7178 34.3802 18.8417 34.3802C19.2652 34.3802 19.6888 34.3802 20.1123 34.3802C20.5875 34.3802 20.9284 34.7338 20.918 35.1914C20.918 35.6074 20.5668 35.9297 20.1123 35.9401C19.8644 35.9401 19.6165 35.9401 19.2962 35.9401H19.3066Z" fill="black"/>
<path id="Vector_13" d="M20.1536 29.6797C20.1536 29.4509 20.1536 29.2222 20.1536 28.9934C20.1536 28.9206 20.1743 28.8998 20.2466 28.8998C20.7114 28.8998 21.166 28.8998 21.6308 28.8998C21.7031 28.8998 21.7134 28.931 21.7134 28.9934C21.7134 29.4509 21.7134 29.9085 21.7134 30.3765C21.7134 30.4493 21.6928 30.4701 21.6205 30.4701C21.166 30.4701 20.7114 30.4701 20.2569 30.4701C20.1743 30.4701 20.164 30.4389 20.164 30.3661C20.164 30.1373 20.164 29.8981 20.164 29.6693L20.1536 29.6797Z" fill="black"/>
<path id="Vector_14" d="M18.6041 31.25C19.0896 31.25 19.5752 31.25 20.0503 31.25C20.1226 31.25 20.1536 31.2604 20.1536 31.354C20.1536 31.8116 20.1536 32.2691 20.1536 32.7163C20.1536 32.7995 20.133 32.8203 20.0503 32.8203C19.5958 32.8203 19.1516 32.8203 18.6971 32.8203C18.6145 32.8203 18.5938 32.7891 18.5938 32.7163C18.5938 32.2275 18.5938 31.7388 18.5938 31.25H18.6041Z" fill="black"/>
<path id="Vector_15" d="M24.8021 31.25C24.8021 31.7388 24.8021 32.2275 24.8021 32.7163C24.8021 32.7891 24.7917 32.8203 24.6988 32.8203C24.2442 32.8203 23.8001 32.8203 23.3455 32.8203C23.2629 32.8203 23.2422 32.7995 23.2422 32.7163C23.2422 32.2587 23.2422 31.8012 23.2422 31.354C23.2422 31.2708 23.2732 31.25 23.3455 31.25C23.8311 31.25 24.3166 31.25 24.7917 31.25H24.8021Z" fill="black"/>
<path id="Vector_16" d="M12.4062 28.1199C12.1789 28.1199 11.9517 28.1199 11.7244 28.1199C11.6624 28.1199 11.6211 28.1199 11.6211 28.0263C11.6211 27.5583 11.6211 27.1007 11.6211 26.6328C11.6211 26.5704 11.6315 26.5496 11.7038 26.5496C12.1686 26.5496 12.6335 26.5496 13.0983 26.5496C13.1603 26.5496 13.1809 26.5704 13.1809 26.6328C13.1809 27.1007 13.1809 27.5583 13.1809 28.0263C13.1809 28.1095 13.1499 28.1199 13.0776 28.1199C12.8504 28.1199 12.6231 28.1199 12.3959 28.1199H12.4062Z" fill="black"/>
<path id="Vector_17" d="M22.4778 18.75C22.4778 18.9788 22.4778 19.2076 22.4778 19.4364C22.4778 19.5092 22.4778 19.5404 22.3849 19.5404C21.92 19.5404 21.4655 19.5404 21.0007 19.5404C20.9387 19.5404 20.918 19.53 20.918 19.4572C20.918 18.9892 20.918 18.5213 20.918 18.0533C20.918 17.9909 20.9387 17.9701 21.0007 17.9701C21.4655 17.9701 21.92 17.9701 22.3849 17.9701C22.4675 17.9701 22.4778 18.0013 22.4778 18.0741C22.4778 18.3029 22.4778 18.5317 22.4778 18.7604V18.75Z" fill="black"/>
<path id="Vector_18" d="M7.74743 17.9701C7.97469 17.9701 8.20194 17.9701 8.4292 17.9701C8.50151 17.9701 8.5325 17.9701 8.5325 18.0637C8.5325 18.5317 8.5325 18.9892 8.5325 19.4572C8.5325 19.5196 8.52217 19.5404 8.44986 19.5404C7.98502 19.5404 7.52017 19.5404 7.05533 19.5404C6.99335 19.5404 6.97269 19.5196 6.97269 19.4572C6.97269 18.9892 6.97269 18.5317 6.97269 18.0637C6.97269 17.9805 7.00368 17.9701 7.07599 17.9701C7.30324 17.9701 7.5305 17.9701 7.75776 17.9701H7.74743Z" fill="black"/>
<path id="Vector_19" d="M18.6041 14.0599C18.6041 14.5487 18.6041 15.0375 18.6041 15.5262C18.6041 15.599 18.5835 15.6302 18.5008 15.6302C18.0463 15.6302 17.6021 15.6302 17.1476 15.6302C17.065 15.6302 17.0443 15.6094 17.0443 15.5262C17.0443 15.0375 17.0443 14.5487 17.0443 14.0599C17.5608 14.0599 18.0773 14.0599 18.5938 14.0599H18.6041Z" fill="black"/>
<path id="Vector_20" d="M10.8464 21.0899C11.0737 21.0899 11.3112 21.0899 11.5385 21.0899C11.6005 21.0899 11.6315 21.1107 11.6315 21.1731C11.6315 21.641 11.6315 22.0986 11.6315 22.5666C11.6315 22.6394 11.6108 22.6498 11.5385 22.6498C11.0737 22.6498 10.6191 22.6498 10.1543 22.6498C10.0923 22.6498 10.0717 22.6394 10.0717 22.5666C10.0717 22.0986 10.0717 21.6306 10.0717 21.1627C10.0717 21.1003 10.0923 21.0795 10.1543 21.0795C10.3816 21.0795 10.6191 21.0795 10.8464 21.0795V21.0899Z" fill="black"/>
<path id="Vector_21" d="M15.5052 46.8698C15.0093 46.8698 14.5032 46.8698 14.0073 46.8698C13.5838 46.8698 13.2946 46.6411 13.2016 46.2459C13.119 45.9027 13.3256 45.5075 13.6561 45.3827C13.7801 45.3307 13.9144 45.3099 14.0487 45.3099C15.0403 45.3099 16.0423 45.3099 17.034 45.3099C17.5092 45.3099 17.8397 45.6635 17.8294 46.1211C17.8294 46.5475 17.4782 46.8698 17.003 46.8698C16.5072 46.8698 16.001 46.8698 15.5052 46.8698Z" fill="black"/>
<path id="Vector_22" d="M15.4845 4.69015C14.4825 4.69015 13.4702 4.69015 12.4682 4.69015C12.024 4.69015 11.7347 4.47176 11.6314 4.06619C11.5488 3.72301 11.7554 3.32784 12.086 3.20304C12.2202 3.15105 12.3649 3.13025 12.5095 3.13025C14.5238 3.13025 16.5278 3.13025 18.5421 3.13025C19.0276 3.13025 19.3789 3.47343 19.3685 3.9414C19.3685 4.36777 19.007 4.69015 18.5318 4.69015C17.5195 4.69015 16.4968 4.69015 15.4845 4.69015Z" fill="black"/>
<path id="Vector_23" d="M23.2526 14.8398C23.0253 14.8398 22.7981 14.8398 22.5708 14.8398C22.4985 14.8398 22.4675 14.8398 22.4675 14.7462C22.4675 14.2783 22.4675 13.8207 22.4675 13.3527C22.4675 13.2903 22.4778 13.2695 22.5501 13.2695C23.015 13.2695 23.4798 13.2695 23.9447 13.2695C24.0067 13.2695 24.0273 13.2903 24.0273 13.3527C24.0273 13.8207 24.0273 14.2783 24.0273 14.7462C24.0273 14.8294 23.9963 14.8398 23.924 14.8398C23.6968 14.8398 23.4695 14.8398 23.2422 14.8398H23.2526Z" fill="black"/>
<path id="Vector_24" d="M7.74743 28.9102C7.97469 28.9102 8.20194 28.9102 8.4292 28.9102C8.50151 28.9102 8.5325 28.9102 8.5325 29.0038C8.5325 29.4717 8.5325 29.9293 8.5325 30.3973C8.5325 30.4597 8.52217 30.4805 8.44986 30.4805C7.98502 30.4805 7.52017 30.4805 7.05533 30.4805C6.99335 30.4805 6.97269 30.4597 6.97269 30.3973C6.97269 29.9293 6.97269 29.4717 6.97269 29.0038C6.97269 28.9206 7.00368 28.9102 7.07599 28.9102C7.30324 28.9102 7.5305 28.9102 7.75776 28.9102H7.74743Z" fill="black"/>
<path id="Vector_25" d="M8.52217 14.0703C8.52217 14.2886 8.52217 14.5174 8.52217 14.7358C8.52217 14.8086 8.52217 14.8398 8.4292 14.8398C7.97469 14.8398 7.52017 14.8398 7.06566 14.8398C7.00368 14.8398 6.97269 14.819 6.97269 14.7566C6.97269 14.2886 6.97269 13.8311 6.97269 13.3631C6.97269 13.2903 6.99335 13.2799 7.06566 13.2799C7.52017 13.2799 7.97469 13.2799 8.4292 13.2799C8.51184 13.2799 8.52217 13.3111 8.52217 13.3839C8.52217 13.6127 8.52217 13.8415 8.52217 14.0703Z" fill="black"/>
</g>
</g>
</g>
</g>
<defs>
<clipPath id="clip0_1899_3210">
<rect width="31" height="50" fill="white"/>
</clipPath>
</defs>
</svg>
