<svg width="48" height="50" viewBox="0 0 48 50" fill="none" xmlns="http://www.w3.org/2000/svg">
<g id="Voucher 1" clip-path="url(#clip0_1899_3181)">
<g id="Layer 1">
<g id="Group">
<g id="VFbqj0.tif">
<g id="Group_2">
<path id="Vector" d="M0 29.4187C0.229091 29.0487 0.556364 28.9398 0.992727 28.9398C5.18182 28.9507 9.37091 28.9398 13.5491 28.9398C13.92 28.9398 14.2036 29.0378 14.4982 29.2663C15.4036 29.9629 16.3309 30.6268 17.2255 31.3234C17.4436 31.4975 17.5745 31.4866 17.76 31.2798C18.3818 30.6159 19.0255 29.9847 19.6473 29.3316C19.8982 29.0704 20.1818 28.9398 20.5527 28.9398C29.4 28.9398 38.2364 28.9398 47.0836 28.9398C47.7709 28.9398 48 29.1793 48 29.8758C48 36.2646 48 42.6534 48 49.0421C48 49.7605 47.7709 49.9781 47.04 49.9781C38.2255 49.9781 29.4218 49.9781 20.6073 49.9781C20.1927 49.9781 19.8982 49.8475 19.6255 49.5537C19.0145 48.9115 18.3818 48.2911 17.7709 47.6381C17.5745 47.4313 17.4545 47.4313 17.2364 47.5946C16.32 48.302 15.3927 48.9768 14.4655 49.6734C14.2036 49.8693 13.9418 49.9672 13.6036 49.9672C9.38182 49.9672 5.17091 49.9672 0.949091 49.9672C0.534545 49.9672 0.229091 49.8366 0.0109091 49.4884V29.3752L0 29.4187ZM33.5782 48.5959C37.7673 48.5959 41.9564 48.5959 46.1455 48.5959C46.5055 48.5959 46.6145 48.5088 46.6145 48.1388C46.6036 42.3595 46.6036 36.5693 46.6145 30.7901C46.6145 30.4527 46.5491 30.3438 46.1891 30.3438C37.8 30.3547 29.4109 30.3438 21.0109 30.3438C20.76 30.3438 20.5745 30.4091 20.4 30.5942C19.7891 31.2363 19.1564 31.8676 18.5236 32.4988C18.36 32.6621 18.2836 32.8362 18.2836 33.0756C18.2836 37.3421 18.2836 41.6194 18.2836 45.8858C18.2836 46.1253 18.3709 46.2885 18.5345 46.4518C19.1455 47.0613 19.7455 47.6708 20.3345 48.2911C20.5418 48.5088 20.76 48.5959 21.0655 48.5959C25.2327 48.5959 29.4109 48.5959 33.5782 48.5959ZM1.40727 39.4318C1.40727 42.3268 1.40727 45.2328 1.40727 48.1279C1.40727 48.4762 1.47273 48.6068 1.85455 48.6068C5.65091 48.5959 9.44727 48.5959 13.2436 48.6068C13.4945 48.6068 13.6909 48.5524 13.8873 48.4C14.7818 47.7143 15.6764 47.0395 16.5818 46.3865C16.8109 46.2232 16.8873 46.0491 16.8873 45.7661C16.8873 41.5759 16.8873 37.3856 16.8873 33.1954C16.8873 32.945 16.8218 32.7709 16.6036 32.6076C15.6873 31.9329 14.7709 31.2581 13.8655 30.5615C13.68 30.42 13.4945 30.3656 13.2655 30.3656C9.45818 30.3656 5.64 30.3656 1.83273 30.3656C1.47273 30.3656 1.39636 30.4635 1.39636 30.8118C1.40727 33.696 1.39636 36.5802 1.39636 39.4644L1.40727 39.4318Z" fill="black"/>
<path id="Vector_2" d="M22.9745 23.868C22.0473 23.683 21.1091 23.5524 20.2036 23.2477C15.1964 21.5716 11.8691 16.7936 12.0764 11.5367C12.2836 5.7248 16.5382 0.99036 22.2982 0.130543C28.7891 -0.838112 34.9964 3.82014 35.8364 10.2851C36.6982 16.8807 32.2909 22.7361 25.7236 23.7483C25.4945 23.781 25.2545 23.7483 25.0364 23.868H22.9745ZM13.4618 11.9177C13.4618 17.7405 18.1745 22.464 23.9891 22.464C29.8145 22.464 34.5382 17.7514 34.5382 11.9394C34.5382 6.14926 29.8145 1.42571 24.0218 1.42571C18.1745 1.42571 13.4618 6.11661 13.4509 11.9285L13.4618 11.9177Z" fill="black"/>
<path id="Vector_3" d="M8.76 6.73694C9.30546 6.95461 9.97091 7.15052 10.4836 7.61852C10.7236 7.8362 10.6909 8.16271 10.5055 8.43481C10.3091 8.7069 10.0255 8.80485 9.72 8.68513C9.2291 8.48922 8.7491 8.26067 8.29091 8.01034C7.99637 7.85797 7.9091 7.55322 8.00728 7.23759C8.10546 6.93285 8.32364 6.74782 8.77091 6.73694H8.76Z" fill="black"/>
<path id="Vector_4" d="M37.9636 8.7178C37.7455 8.7178 37.5164 8.56543 37.4182 8.27156C37.2982 7.94505 37.3636 7.62942 37.68 7.45528C38.16 7.19407 38.6509 6.96551 39.1636 6.7696C39.4691 6.64988 39.7527 6.7696 39.9273 7.06347C40.1018 7.34644 40.08 7.62942 39.8727 7.87975C39.72 8.07566 38.3236 8.70691 37.9746 8.70691L37.9636 8.7178Z" fill="black"/>
<path id="Vector_5" d="M8.25817 12.636C8.03999 12.636 7.8218 12.6469 7.60362 12.636C7.16726 12.6142 6.89453 12.3204 6.89453 11.9286C6.89453 11.5476 7.16726 11.2647 7.5818 11.2429C8.0618 11.2211 8.5418 11.2211 9.03271 11.2429C9.43635 11.2647 9.69817 11.5694 9.69817 11.9503C9.69817 12.3313 9.42544 12.6034 9.0109 12.636C8.75999 12.6578 8.50908 12.636 8.26908 12.636H8.25817Z" fill="black"/>
<path id="Vector_6" d="M39.6764 12.636C39.4473 12.636 39.2073 12.6469 38.9782 12.636C38.5746 12.6033 38.3127 12.3095 38.3127 11.9394C38.3127 11.5585 38.5855 11.2646 38.9891 11.2538C39.4691 11.232 39.9491 11.232 40.44 11.2538C40.8437 11.2755 41.1055 11.5694 41.1055 11.9503C41.1055 12.3312 40.8327 12.6142 40.4291 12.636C40.1782 12.6578 39.9273 12.636 39.6873 12.636H39.6764Z" fill="black"/>
<path id="Vector_7" d="M8.79273 17.131C8.34546 17.131 8.11637 16.9678 8.00728 16.663C7.88728 16.3365 7.98546 16.0209 8.29092 15.8576C8.76001 15.6073 9.24001 15.3788 9.73092 15.1937C10.0473 15.074 10.3527 15.1937 10.5382 15.4985C10.7018 15.7815 10.7018 16.108 10.4509 16.3148C9.93819 16.7283 9.30546 16.9243 8.80364 17.1419L8.79273 17.131Z" fill="black"/>
<path id="Vector_8" d="M38.1818 15.1501C38.7054 15.3787 39.36 15.5637 39.8727 16.01C40.1127 16.2168 40.1127 16.5433 39.9273 16.8262C39.7418 17.1092 39.4582 17.2289 39.1527 17.1092C38.6509 16.9133 38.1491 16.6739 37.68 16.4127C37.3854 16.2494 37.32 15.9447 37.4182 15.6399C37.5163 15.3243 37.7563 15.1719 38.1927 15.161L38.1818 15.1501Z" fill="black"/>
<path id="Vector_9" d="M38.3454 36.896C36.7418 36.896 35.1273 36.896 33.5236 36.896C32.76 36.896 32.5418 36.6783 32.5418 35.9382C32.5418 35.1437 32.5418 34.3492 32.5418 33.5546C32.5418 32.9451 32.7927 32.6948 33.3927 32.6948C36.7309 32.6948 40.08 32.6948 43.4182 32.6948C44.0182 32.6948 44.2582 32.956 44.2582 33.5546C44.2582 34.3818 44.2582 35.209 44.2582 36.0361C44.2582 36.6565 44.0073 36.896 43.3636 36.896C41.6945 36.896 40.0254 36.896 38.3454 36.896ZM38.4109 34.0879H34.8982C33.9273 34.0879 33.9491 34.0879 33.9273 35.0675C33.9273 35.4266 34.0254 35.5028 34.3745 35.5028C36.8618 35.4919 39.3382 35.5028 41.8254 35.5028C42.8836 35.5028 42.8618 35.5028 42.8618 34.458C42.8618 34.1641 42.7745 34.0988 42.4909 34.0988C41.1382 34.1097 39.7745 34.0988 38.4218 34.0988L38.4109 34.0879Z" fill="black"/>
<path id="Vector_10" d="M34.1454 43.448C31.1454 43.448 28.1454 43.448 25.1454 43.448C24.9927 43.448 24.8291 43.4697 24.6764 43.4371C24.3164 43.3609 24.0982 43.1214 24.0982 42.7514C24.0982 42.3813 24.3164 42.1419 24.6873 42.0657C24.84 42.0331 25.0036 42.0548 25.1564 42.0548C31.1673 42.0548 37.1782 42.0548 43.2 42.0548C43.32 42.0548 43.4509 42.0548 43.5709 42.0548C43.9745 42.0875 44.2473 42.3813 44.2473 42.7514C44.2473 43.1214 43.9636 43.4262 43.56 43.448C43.0145 43.4697 42.4691 43.448 41.9236 43.448C39.3273 43.448 36.7418 43.448 34.1454 43.448Z" fill="black"/>
<path id="Vector_11" d="M34.1673 46.256C31.1564 46.256 28.1346 46.256 25.1236 46.256C24.9709 46.256 24.8073 46.2669 24.6546 46.2342C24.2946 46.1471 24.0873 45.9077 24.0982 45.5268C24.1091 45.1676 24.3164 44.9499 24.6655 44.8737C24.8182 44.8411 24.9709 44.852 25.1346 44.852C31.1673 44.852 37.1891 44.852 43.2218 44.852C43.3636 44.852 43.5055 44.8411 43.6473 44.8628C44.0182 44.9282 44.2364 45.1567 44.2473 45.5268C44.2473 45.9295 44.0291 46.1689 43.6364 46.2342C43.5055 46.256 43.3527 46.2451 43.2109 46.2451C40.2 46.2451 37.1782 46.2451 34.1673 46.2451V46.256Z" fill="black"/>
<path id="Vector_12" d="M36.0436 39.2359C38.4327 39.2359 40.8218 39.2359 43.2109 39.2359C43.3527 39.2359 43.4945 39.225 43.6363 39.2468C44.0073 39.3121 44.2254 39.5406 44.2363 39.9107C44.2473 40.3134 44.0182 40.5528 43.6363 40.6181C43.5054 40.6399 43.3527 40.629 43.2109 40.629C38.4327 40.629 33.6545 40.629 28.8764 40.629C28.7345 40.629 28.5927 40.6399 28.4509 40.6181C28.0691 40.5419 27.84 40.3025 27.8509 39.9107C27.8509 39.5406 28.0909 39.3121 28.4509 39.2468C28.5927 39.225 28.7345 39.2359 28.8764 39.2359C31.2654 39.2359 33.6545 39.2359 36.0436 39.2359Z" fill="black"/>
<path id="Vector_13" d="M27.1418 32.6838C27.8618 32.6838 28.5818 32.6838 29.2909 32.6838C29.9346 32.6838 30.1746 32.9233 30.1855 33.5545C30.1855 34.3817 30.1855 35.2089 30.1855 36.036C30.1855 36.6455 29.9346 36.8959 29.3346 36.8959C27.8618 36.8959 26.4 36.8959 24.9273 36.8959C24.3382 36.8959 24.0873 36.6346 24.0873 36.0252C24.0873 35.198 24.0873 34.3708 24.0873 33.5437C24.0873 32.9233 24.3382 32.6838 24.9818 32.6838C25.7018 32.6838 26.4218 32.6838 27.1309 32.6838H27.1418ZM27.12 35.4918H27.7746C28.8218 35.4918 28.8109 35.4918 28.7891 34.4252C28.7891 34.164 28.7236 34.077 28.4509 34.077C27.8073 34.0987 27.1746 34.077 26.5309 34.077C25.4509 34.077 25.4618 34.077 25.4946 35.1653C25.4946 35.4048 25.56 35.5027 25.8109 35.4918C26.2473 35.4701 26.6836 35.4918 27.12 35.4918Z" fill="black"/>
<path id="Vector_14" d="M25.2327 40.629C25.0582 40.629 24.8836 40.6508 24.72 40.629C24.3382 40.5637 24.0982 40.3242 24.1091 39.9215C24.1091 39.5515 24.3382 39.2903 24.6982 39.2576C25.0691 39.2141 25.4509 39.2141 25.8218 39.2576C26.2145 39.3012 26.4436 39.5624 26.4327 39.9542C26.4327 40.346 26.1818 40.5854 25.7891 40.629C25.6036 40.6508 25.4182 40.629 25.2327 40.629Z" fill="black"/>
<path id="Vector_15" d="M13.5927 35.6769C13.5927 35.9381 13.4836 36.1231 13.3309 36.2864C10.8654 38.7461 8.39999 41.2058 5.93453 43.6547C5.59635 43.9921 5.19272 44.003 4.89817 43.72C4.60363 43.437 4.60363 43.0234 4.94181 42.686C7.40726 40.2154 9.88363 37.7448 12.36 35.2742C12.5891 35.0456 12.8509 34.9477 13.1673 35.0892C13.44 35.2089 13.5709 35.4265 13.5927 35.6769Z" fill="black"/>
<path id="Vector_16" d="M11.76 39.9868C12.9273 39.9868 13.8764 40.9337 13.8764 42.0983C13.8764 43.252 12.9164 44.1989 11.7491 44.188C10.6036 44.188 9.66547 43.2411 9.66547 42.0983C9.66547 40.9337 10.6036 39.9868 11.7709 39.976L11.76 39.9868ZM12.4582 42.0765C12.4582 41.7065 12.1309 41.4017 11.76 41.3908C11.3673 41.3908 11.04 41.7174 11.0509 42.1092C11.0509 42.4792 11.3782 42.784 11.7491 42.7948C12.1418 42.7948 12.4691 42.4683 12.4582 42.0765Z" fill="black"/>
<path id="Vector_17" d="M8.62909 36.8524C8.62909 38.017 7.66909 38.9639 6.51273 38.953C5.35637 38.953 4.40727 37.9843 4.41818 36.8198C4.42909 35.677 5.36727 34.7519 6.51273 34.741C7.68 34.741 8.62909 35.6879 8.62909 36.8415V36.8524ZM7.22182 36.8524C7.22182 36.4824 6.91637 36.1667 6.54546 36.145C6.15273 36.1341 5.81455 36.4497 5.81455 36.8415C5.81455 37.2116 6.12 37.5272 6.49091 37.549C6.88364 37.5599 7.22182 37.2442 7.22182 36.8524Z" fill="black"/>
</g>
</g>
<g id="TmI6Cc.tif">
<path id="Vector_18" d="M28.6909 9.37083L28.6582 9.59939L28.56 9.67557L22.9309 15.2916L22.8 15.3678L22.6691 15.3134L20.2146 12.6904L19.4073 11.8197L19.8437 11.3734L20.4218 10.8401L20.9018 11.319L22.8218 13.3869L27.6546 8.56543H27.9055L28.6909 9.37083Z" fill="black"/>
</g>
</g>
</g>
</g>
<defs>
<clipPath id="clip0_1899_3181">
<rect width="48" height="50" fill="white"/>
</clipPath>
</defs>
</svg>
